<svg id="Layer_1" data-name="Layer 1" xmlns="http://www.w3.org/2000/svg" xmlns:xlink="http://www.w3.org/1999/xlink" viewBox="0 0 817.78 633.81"><defs><style>.cls-1{fill:#f9b7b8;}.cls-2{fill:#585b8a;}.cls-21,.cls-25,.cls-3,.cls-31{fill:#010101;}.cls-3{opacity:0.2;}.cls-10,.cls-17,.cls-18,.cls-19,.cls-21,.cls-25,.cls-3,.cls-6,.cls-9{isolation:isolate;}.cls-4{fill:#302e41;}.cls-5{fill:#403e56;}.cls-15,.cls-6{fill:#fff;}.cls-10,.cls-7,.cls-9{fill:#f79869;}.cls-8{fill:#231f20;}.cls-9{opacity:0.5;}.cls-10,.cls-17,.cls-25,.cls-30{opacity:0.1;}.cls-11{fill:#454154;}.cls-12,.cls-13{fill:none;stroke:#454154;stroke-miterlimit:10;}.cls-13{stroke-width:0.75px;}.cls-14,.cls-17{fill:#33333e;}.cls-16{fill:#515061;}.cls-18{fill:#8ec851;}.cls-18,.cls-19{opacity:0.8;}.cls-19{fill:#f15b5b;}.cls-20{fill:#f9bebf;}.cls-21{opacity:0.05;}.cls-22{fill:#474454;}.cls-23{fill:url(#linear-gradient);}.cls-24{fill:#67627d;}.cls-26{fill:#ef8f9f;}.cls-27{fill:#e3e7f4;}.cls-28{fill:#e7e8eb;}.cls-29{fill:#575488;}.cls-32{fill:#a2626b;}.cls-33{fill:#524f80;}.cls-34{fill:url(#linear-gradient-2);}</style><linearGradient id="linear-gradient" x1="629.37" y1="197.7" x2="629.37" y2="261.3" gradientTransform="matrix(1, 0, 0, -1, -11.09, 914.58)" gradientUnits="userSpaceOnUse"><stop offset="0" stop-color="#818181" stop-opacity="0.25"/><stop offset="0.54" stop-color="#818181" stop-opacity="0.12"/><stop offset="1" stop-color="#818181" stop-opacity="0.1"/></linearGradient><linearGradient id="linear-gradient-2" x1="707.96" y1="131.92" x2="731.15" y2="131.92" xlink:href="#linear-gradient"/></defs><path class="cls-1" d="M561.07,633.41s73,4.33,56,30.73-61.68-15.49-61.68-15.49Z" transform="translate(-91.11 -183.09)"/><path class="cls-2" d="M426.55,382l14.85,4.27s8.67,29.86,14.86,56.88,18.58,108.08,18.58,108.08l96,77.27-11.45,29.42L431.5,600.05,403,471.62Z" transform="translate(-91.11 -183.09)"/><polygon class="cls-3" points="349.41 251.94 343.88 385.13 355.43 424.73 321.58 396.22 349.41 251.94"/><path class="cls-4" d="M460.6,671.42s16.09,49.77,18.57,83.9,4.95,61.15,4.95,61.15H408.59l-14.86-25.59v25.59H305.82S281.06,724,291,712.66s104-59.73,104-59.73Z" transform="translate(-91.11 -183.09)"/><rect class="cls-5" x="76.35" y="632.08" width="437.05" height="1.73"/><ellipse class="cls-1" cx="274.76" cy="90.85" rx="47.05" ry="54.04"/><path class="cls-1" d="M330,296.7l-3.72,62.57L373.3,431.8l23.53-68.26s-21.05-15.65-8.67-48.35Z" transform="translate(-91.11 -183.09)"/><path class="cls-2" d="M467.4,683.51c0,12.8-30.95,32.71-30.95,32.71v7.11l-12.38,7.11-27.24-62.57-7.43,68.25s-54.48,10-71.81,0-26-5.68-50.77-15.64,9.91-143.63,9.91-143.63L252,370.65l54.1-31.07,2.85-1.64,7.44-1.58L327.76,334l38.11,29.59L368.94,382l1.89,11.37,9.9-12.8,7.48-28.24,53.2,33.93L426.55,522.81S467.4,670.71,467.4,683.51Z" transform="translate(-91.11 -183.09)"/><path class="cls-1" d="M285.39,727.59s57,52.62,29.72,62.57-42.1-54-42.1-54Z" transform="translate(-91.11 -183.09)"/><path class="cls-2" d="M264.34,373.49,252,370.65S233.39,382,232.15,404.78s-17.33,182-17.33,182l52,160.69L308.92,729,268.06,578.27,299,447.44Z" transform="translate(-91.11 -183.09)"/><ellipse class="cls-4" cx="280.21" cy="228.61" rx="4.51" ry="5.18"/><ellipse class="cls-4" cx="280.21" cy="262.31" rx="4.51" ry="5.18"/><ellipse class="cls-4" cx="305.78" cy="484.35" rx="4.51" ry="5.18"/><path class="cls-4" d="M326.15,218.58l-8.7-4s18.19-23,43.49-21l-7.12-9s17.4-8,33.21,13c8.32,11,17.94,24,23.93,38.62h9.32L416.39,246l13.6,9.84-14-1.77a63.15,63.15,0,0,1,.38,16.31,22,22,0,0,1-6.73,13.8h0s-10.79-25.64-10.79-29.64v10s-8.69-9-8.69-15l-4.75,7H353.82l4.75-9-18.19,3,7.12-11L319.34,285S303.22,233.58,326.15,218.58Z" transform="translate(-91.11 -183.09)"/><ellipse class="cls-5" cx="514.83" cy="331.37" rx="75.22" ry="86.4"/><ellipse class="cls-6" cx="514.83" cy="331.37" rx="64.69" ry="74.3"/><path class="cls-7" d="M602.84,558.31V547.49a20,20,0,0,1-12.55-4.71l2-7.17a18.45,18.45,0,0,0,11.82,4.6c5.83,0,9.77-4.39,9.77-10.49,0-5.89-3.2-9.53-9.28-12.74-8.37-4.28-13.54-9.21-13.54-18.52,0-8.89,4.85-15.64,12.4-17.24V470.4h5.08v10.39a18.16,18.16,0,0,1,10.67,3.75l-2,7.06A16.56,16.56,0,0,0,606.78,488c-6.32,0-8.7,4.93-8.7,9.21,0,5.57,3,8.35,10.18,12.21C616.71,513.87,621,519.44,621,529c0,8.46-4.52,16.38-13,18.2v11.14Z" transform="translate(-91.11 -183.09)"/><polygon class="cls-3" points="188.06 436.19 218.15 544.13 194.08 431.81 188.06 436.19"/><path class="cls-8" d="M125.78,408.42H106.69a3.4,3.4,0,0,1-3.14-3.61V373.29a3.4,3.4,0,0,1,3.14-3.61h19.09a3.39,3.39,0,0,1,3.14,3.61v31.52A3.4,3.4,0,0,1,125.78,408.42Zm-19.09-37a1.78,1.78,0,0,0-1.64,1.88v31.52a1.78,1.78,0,0,0,1.64,1.88h19.09a1.77,1.77,0,0,0,1.64-1.88V373.29a1.77,1.77,0,0,0-1.64-1.88Z" transform="translate(-91.11 -183.09)"/><path class="cls-5" d="M160.67,408.42H143.42c-2.24,0-4.06-2.09-4.06-4.67V340.08c0-2.58,1.82-4.67,4.06-4.67h17.25c2.24,0,4.06,2.09,4.06,4.67v63.67C164.73,406.33,162.91,408.42,160.67,408.42Zm-17.25-71.28a2.77,2.77,0,0,0-2.56,2.94v63.67a2.77,2.77,0,0,0,2.56,2.94h17.25a2.78,2.78,0,0,0,2.56-2.94V340.08a2.78,2.78,0,0,0-2.56-2.94Z" transform="translate(-91.11 -183.09)"/><path class="cls-5" d="M195.81,408.42H179.89c-2.61,0-4.73-2.43-4.73-5.43V309.31c0-3,2.12-5.43,4.73-5.43h15.92c2.61,0,4.72,2.43,4.73,5.43V403C200.53,406,198.42,408.42,195.81,408.42ZM179.89,305.61a3.49,3.49,0,0,0-3.22,3.7V403a3.49,3.49,0,0,0,3.22,3.7h15.92A3.49,3.49,0,0,0,199,403V309.31a3.49,3.49,0,0,0-3.22-3.7Z" transform="translate(-91.11 -183.09)"/><rect class="cls-7" x="17.96" y="192.59" width="14.32" height="26.73"/><rect class="cls-7" x="53.77" y="158.66" width="14.32" height="60.66"/><rect class="cls-7" x="89.58" y="127.13" width="14.32" height="92.19"/><path class="cls-7" d="M635,309.06H534.93a.81.81,0,0,1-.75-.86h0V191.56a.76.76,0,1,1,1.5,0V307.34H635a.87.87,0,0,1,0,1.72Z" transform="translate(-91.11 -183.09)"/><path class="cls-7" d="M210.72,420.52H91.86a.82.82,0,0,1-.75-.87h0V284a.76.76,0,1,1,1.51,0V418.79h118.1a.81.81,0,0,1,.75.86A.82.82,0,0,1,210.72,420.52Z" transform="translate(-91.11 -183.09)"/><path class="cls-5" d="M569.46,298.24h-19.1a3.41,3.41,0,0,1-3.14-3.61V263.1a3.4,3.4,0,0,1,3.14-3.6h19.1a3.4,3.4,0,0,1,3.14,3.6v31.53A3.41,3.41,0,0,1,569.46,298.24Zm-19.1-37a1.77,1.77,0,0,0-1.63,1.88v31.53a1.77,1.77,0,0,0,1.63,1.88h19.1a1.77,1.77,0,0,0,1.63-1.88V263.1a1.77,1.77,0,0,0-1.63-1.88Z" transform="translate(-91.11 -183.09)"/><path class="cls-5" d="M608.57,298.24H591a4.23,4.23,0,0,1-3.9-4.48V236.65a4.23,4.23,0,0,1,3.9-4.48h17.58c2.15,0,3.89,2,3.9,4.48v57.11A4.24,4.24,0,0,1,608.57,298.24ZM591,233.9a2.6,2.6,0,0,0-2.4,2.75v57.11a2.6,2.6,0,0,0,2.4,2.75h17.58a2.59,2.59,0,0,0,2.39-2.75V236.65a2.59,2.59,0,0,0-2.39-2.75Z" transform="translate(-91.11 -183.09)"/><rect class="cls-7" x="461.29" y="82.7" width="14.32" height="26.73"/><rect class="cls-7" x="501.5" y="56.25" width="14.32" height="51.72"/><ellipse class="cls-7" cx="468.64" cy="59.44" rx="6.77" ry="7.78"/><ellipse class="cls-7" cx="508.51" cy="30.07" rx="6.77" ry="7.78"/><path class="cls-9" d="M908.89,730.31a80.88,80.88,0,0,1-2.36,19.41q-.79,3.21-1.84,6.28a75.84,75.84,0,0,1-3,7.44c-.57,1.23-1.17,2.43-1.8,3.61a48.43,48.43,0,0,1-4.06,19.49,50.29,50.29,0,0,1-24.38,25.13,51.42,51.42,0,0,1-21.8,5H590.89a65.23,65.23,0,0,1-32.8-8.77q-2.21-1.27-4.31-2.72a65.88,65.88,0,0,1-8.52-7,63.55,63.55,0,0,1-9.37-11.62,61.91,61.91,0,0,1-9.52-33.07,77.92,77.92,0,0,1-10-38.62A76.57,76.57,0,0,1,531.83,668a66.84,66.84,0,0,1,6.57-7.3,60.5,60.5,0,0,1,7.51-6.15,57.7,57.7,0,0,1,6.67-4q1.44-.74,2.91-1.38c.87-.39,1.74-.74,2.62-1.08,1.06-.41,2.13-.77,3.22-1.11s2.16-.63,3.22-.89c1.55-.38,3.13-.69,4.74-.92,1.34-.2,2.67-.34,4-.44,1.06-.08,2.13-.12,3.21-.14h.58c1.19,0,2.37,0,3.54.13.12-.25.25-.5.38-.74.46-.89,1-1.78,1.43-2.65v0l.26-.45c.39-.71.8-1.41,1.22-2.11.19-.33.38-.64.58-1l.14-.22c.2-.34.4-.67.61-1,1-1.65,2.09-3.26,3.2-4.85l.29-.41c.17-.24.33-.49.52-.73.46-.64.94-1.29,1.41-1.93.34-.45.67-.9,1-1.33q1.3-1.68,2.67-3.33c.91-1.1,1.87-2.21,2.84-3.29l.4-.45L599,618.7h0l.19-.2h0c.17-.19.34-.37.52-.55.76-.81,1.54-1.6,2.33-2.39a127.85,127.85,0,0,1,12.81-11.13l.53-.41c.85-.64,1.71-1.27,2.57-1.89a136,136,0,0,1,14.8-9.23c.35-.2.71-.39,1.08-.58A142.77,142.77,0,0,1,648,585.8q3.94-1.56,8-2.92c1.81-.59,3.62-1.15,5.46-1.66,2.84-.82,5.71-1.55,8.62-2.21a154.9,154.9,0,0,1,26.08-3.55c2.66-.14,5.36-.21,8.08-.21a154.87,154.87,0,0,1,39,4.93,1.41,1.41,0,0,0,1.21.63h1.12l1.46.41c2.72.78,5.4,1.64,8,2.56l.67.24a144.13,144.13,0,0,1,19,8.33,139.2,139.2,0,0,1,15.88,9.81c.78.56,1.54,1.13,2.3,1.7.92-.59,1.86-1.16,2.81-1.7a55.13,55.13,0,0,1,11.62-4.95,53,53,0,0,1,26.08-1,57.66,57.66,0,0,1,29.21,16.48,68,68,0,0,1,8.77,11.09c.18.29.37.57.54.87a71.9,71.9,0,0,1,5.58,11.13c.06.14.12.27.17.41a76.86,76.86,0,0,1,3.43,11.12l.12.57A78.89,78.89,0,0,1,882.9,659a1.89,1.89,0,0,0,0,.41q.21,2.9.21,5.87c0,1.76-.06,3.52-.17,5.25,0,.19,0,.39,0,.59,0,.5-.07,1-.12,1.51a62,62,0,0,1,7.13,6.72c1,1,1.91,2.16,2.82,3.3A69.65,69.65,0,0,1,900,693.75,78.24,78.24,0,0,1,908.89,730.31Z" transform="translate(-91.11 -183.09)"/><path class="cls-10" d="M871.23,795.9c0,7.58-7.85,14.67-21.55,20.77H590.89c-12,0-23.19-4.33-32.8-11.88a13.79,13.79,0,0,1-3.69-8.89c0-8,8.88-15.57,24.23-21.92h0l.43-.17c4.33-1.78,9.17-3.45,14.47-5l.4-.12h0c4.2-1.24,8.67-2.4,13.4-3.51l.45-.1c1.82-.43,3.69-.83,5.59-1.24h0l.73-.15a419.2,419.2,0,0,1,46.66-6.7h0c2.39-.22,4.8-.42,7.25-.59,2.71-.22,5.46-.4,8.24-.57,2.12-.14,4.27-.26,6.43-.36a0,0,0,0,1,0,0c9.73-.49,19.78-.75,30-.75A554.08,554.08,0,0,1,783.52,759h.06q4.92.65,9.62,1.36l2.67.42q5.29.86,10.33,1.81h0C845.62,770.11,871.23,782.23,871.23,795.9Z" transform="translate(-91.11 -183.09)"/><path class="cls-7" d="M806.81,656.32s-3.53-1.43-14.75,3.71-12.61,4.49-15.52,3.72-4.52-1-7.63-5.27c0,0-2.2-11.9-4.33-13.75s-11.16,1.06-11.16,1.06-10.83,2.48-12.89-12c0,0,1.46-10.9-.53-14.25,0,0,4,1.73,10.67-1.07s12,3,12,3,1.67,4.33,1.5,6.92.89,3.55,4,2.3c0,0,1.56-2.21-.64-5.87s-3.78-6.38-3.17-9.22,2.39-6.78,8.07-8.75,13.39-2.33,17.1-3.89,4.61-2.55,4.61-2.55-2.28,2.28,3.09,12,1.95,13.88,1.95,13.88-2.86,6.81-15.47,6.26c0,0-12.15.44-5.52,5.59,0,0,4.24-.86,10.58-2.87s10.92,6.3,12.06,12.09A15.21,15.21,0,0,0,806.81,656.32Z" transform="translate(-91.11 -183.09)"/><path class="cls-11" d="M790.47,607.76l.07,0c.49,1.85-4.94,9.27-9.58,15.18l-.06,0C787.45,614.56,790.85,609.19,790.47,607.76Z" transform="translate(-91.11 -183.09)"/><path class="cls-11" d="M781,622.76l0,.07c-3.71,4.71-8.38,10.33-12.11,14.51-.36.4-.71.81-1,1.24l-.1-.09c.33-.43.69-.84,1.05-1.24C772.55,633.09,777.28,627.47,781,622.76Z" transform="translate(-91.11 -183.09)"/><path class="cls-11" d="M767.86,638.38l.07.13c-6.79,8.48-7.24,21.66-7.26,21.77l-1.43-1.67C759.25,658.5,761,646.93,767.86,638.38Z" transform="translate(-91.11 -183.09)"/><path class="cls-12" d="M798.94,651.72s-8-4.17-14.25-2.67-20.31-5.3-20.31-5.3-6-2.42-7.16-5.18c0,0-4.1-4.33-4.33-6.57s-4.22-7.87-6.82-8.09" transform="translate(-91.11 -183.09)"/><path class="cls-12" d="M797.77,655.73s-4-2.72-3.56-5.89" transform="translate(-91.11 -183.09)"/><path class="cls-12" d="M791.58,659.24s-5.77-2.1-6.33-10.31" transform="translate(-91.11 -183.09)"/><path class="cls-12" d="M782.28,661.36a12.9,12.9,0,0,1-3.68-12.56" transform="translate(-91.11 -183.09)"/><path class="cls-12" d="M771.09,659.13s-3.67-7.7-.41-12.71" transform="translate(-91.11 -183.09)"/><path class="cls-12" d="M799,646.64s-4.17,1.34-3.27,3.52" transform="translate(-91.11 -183.09)"/><path class="cls-12" d="M794,639.09s-5.58,1.77-5.71,9.66" transform="translate(-91.11 -183.09)"/><path class="cls-12" d="M786.2,637.25s-5.08,6.27-4.7,12" transform="translate(-91.11 -183.09)"/><path class="cls-12" d="M777.31,639.71s-5,4.82-4.41,7.51" transform="translate(-91.11 -183.09)"/><path class="cls-12" d="M774.26,638s-4.73.84-5.39-.71" transform="translate(-91.11 -183.09)"/><path class="cls-12" d="M768.12,632.29s2.38,3.17,3,2.46" transform="translate(-91.11 -183.09)"/><path class="cls-12" d="M791.82,630.29s-11.93.87-14.63-2.73" transform="translate(-91.11 -183.09)"/><path class="cls-12" d="M765.62,616.34s5.59,12,9.66,13.54" transform="translate(-91.11 -183.09)"/><path class="cls-12" d="M771.48,610.61s3.43,11.06,7.69,14.5" transform="translate(-91.11 -183.09)"/><path class="cls-13" d="M796.83,621.17s-9.07,3.89-14.51,0" transform="translate(-91.11 -183.09)"/><path class="cls-13" d="M779.56,608.26s2.07,8.12,4.86,10.08" transform="translate(-91.11 -183.09)"/><path class="cls-13" d="M795.47,612.07s-5.1,1.93-7,.45" transform="translate(-91.11 -183.09)"/><path class="cls-12" d="M763.75,635s0,7.08-1.93,7.58" transform="translate(-91.11 -183.09)"/><path class="cls-12" d="M748,644.12s7.66.67,11.18-3.3" transform="translate(-91.11 -183.09)"/><path class="cls-12" d="M761.77,626.58s-1.85,7.18-7,9.12" transform="translate(-91.11 -183.09)"/><path class="cls-12" d="M743.39,636.56a10,10,0,0,0,10.09-2.92" transform="translate(-91.11 -183.09)"/><path class="cls-12" d="M755.74,620.41s-.51,6.09-3.82,9" transform="translate(-91.11 -183.09)"/><path class="cls-12" d="M743.6,627.26s4.5,0,5.55-1.44" transform="translate(-91.11 -183.09)"/><rect class="cls-14" x="556.97" y="467.32" width="128.04" height="64.63"/><rect class="cls-14" x="517.08" y="551.59" width="208.21" height="42.54"/><polygon class="cls-15" points="566.79 562.23 673.55 562.23 694.82 633.81 544.29 633.81 566.79 562.23"/><polygon class="cls-16" points="511.15 526.23 511.15 548.32 511.15 552.97 511.15 594.13 551.04 594.13 551.04 554.86 691.34 554.86 691.34 594.13 731.23 594.13 731.23 552.97 731.23 548.32 731.23 526.23 511.15 526.23"/><rect class="cls-17" x="511.15" y="526.23" width="220.07" height="22.09"/><circle class="cls-18" cx="719.37" cy="537.27" r="3.27"/><circle class="cls-19" cx="704.64" cy="537.27" r="3.27"/><rect class="cls-15" x="561.67" y="451.78" width="118.63" height="70.36"/><path class="cls-20" d="M789.46,737.56c.25,2.72-1.81,5.37-1.21,8,.13.57.38,1.11.47,1.67.24,1.58-.7,3.08-1.6,4.41l-7.74,11.39a7,7,0,0,1-1.11,1.36c-1.48,1.34-3.7,1.18-5.65,1.58a9.64,9.64,0,0,0-3.78,1.66.26.26,0,0,0-.05.34,3.26,3.26,0,0,0,2.81,1.33c.21.27,0,.67-.28.85s-1,.37-1.07,1.07a1.23,1.23,0,0,0,.14.71,2.19,2.19,0,0,0,1.36.94c2.67.82,5.58-.62,7.58-2.58s3.45-4.43,5.42-6.43c1.09-1.1,2.33-2,3.45-3.11a39,39,0,0,0,5.67-7.34,8,8,0,0,0,1.22-2.49c.21-.89.12-1.82.36-2.7a10,10,0,0,1,1.85-3,10,10,0,0,0,2.11-6.54,6.26,6.26,0,0,0-3.82-5.42,3.48,3.48,0,0,0-2.14-.13,5.14,5.14,0,0,0-2.19,1.74l-1.47,1.69a4.22,4.22,0,0,0-.85,1.31,1.33,1.33,0,0,0,.3,1.44" transform="translate(-91.11 -183.09)"/><path class="cls-21" d="M789.46,737.56c.25,2.72-1.81,5.37-1.21,8,.13.57.38,1.11.47,1.67.24,1.58-.7,3.08-1.6,4.41l-7.74,11.39a7,7,0,0,1-1.11,1.36c-1.48,1.34-3.7,1.18-5.65,1.58a9.64,9.64,0,0,0-3.78,1.66.26.26,0,0,0-.05.34,3.26,3.26,0,0,0,2.81,1.33c.21.27,0,.67-.28.85s-1,.37-1.07,1.07a1.23,1.23,0,0,0,.14.71,2.19,2.19,0,0,0,1.36.94c2.67.82,5.58-.62,7.58-2.58s3.45-4.43,5.42-6.43c1.09-1.1,2.33-2,3.45-3.11a39,39,0,0,0,5.67-7.34,8,8,0,0,0,1.22-2.49c.21-.89.12-1.82.36-2.7a10,10,0,0,1,1.85-3,10,10,0,0,0,2.11-6.54,6.26,6.26,0,0,0-3.82-5.42,3.48,3.48,0,0,0-2.14-.13,5.14,5.14,0,0,0-2.19,1.74l-1.47,1.69a4.22,4.22,0,0,0-.85,1.31,1.33,1.33,0,0,0,.3,1.44" transform="translate(-91.11 -183.09)"/><path class="cls-5" d="M795.32,807.64a8.9,8.9,0,0,1-5.76.85c-.34,0-.69-.06-.9.19s.06.87.41,1.16a8.63,8.63,0,0,0,4,1.63,27.75,27.75,0,0,0,3.87.26,65.57,65.57,0,0,0,10.58-.39,1.69,1.69,0,0,0,.58-.17,1.14,1.14,0,0,0,.44-.67,2.63,2.63,0,0,0-.92-2.52,8,8,0,0,0-2.47-1.33l-3.07-1.2c-.73-.28-1.88-1-2.67-1C797.94,804.6,796.54,806.93,795.32,807.64Z" transform="translate(-91.11 -183.09)"/><path class="cls-21" d="M795.32,807.64a8.9,8.9,0,0,1-5.76.85c-.34,0-.69-.06-.9.19s.06.87.41,1.16a8.63,8.63,0,0,0,4,1.63,27.75,27.75,0,0,0,3.87.26,65.57,65.57,0,0,0,10.58-.39,1.69,1.69,0,0,0,.58-.17,1.14,1.14,0,0,0,.44-.67,2.63,2.63,0,0,0-.92-2.52,8,8,0,0,0-2.47-1.33l-3.07-1.2c-.73-.28-1.88-1-2.67-1C797.94,804.6,796.54,806.93,795.32,807.64Z" transform="translate(-91.11 -183.09)"/><path class="cls-22" d="M797.46,766.83c-1.27,1.71-2.6,3.67-2.28,5.78a13,13,0,0,0,1.27,3.19,21.68,21.68,0,0,1,1.29,4.48c.48,2.23,1,4.46,1.25,6.73.34,2.55-1.23,10-1.38,12.52a2.57,2.57,0,0,1-.54,1.74,2,2,0,0,0-.47.55,1,1,0,0,0,.1.65,7.18,7.18,0,0,0,3.84,3.53,30.93,30.93,0,0,0,7.41,2,1.39,1.39,0,0,0,.7-.1,1.33,1.33,0,0,0,.54-.61c1.28-2.46,0-11.2.07-14,0-2.33.56-4.61.46-6.92-.08-1.86-.58-3.67-.76-5.52a32.75,32.75,0,0,1,.82-9.08c.43-2.3.85-4.6,1.4-6.87a13.3,13.3,0,0,1,1.48-4c.61-1,1.43-1.75,2.12-2.67a12,12,0,0,0,2.36-8.79c0-.3-4.44,1.12-4.82,1.28a15.37,15.37,0,0,0-4.3,2.77,40.42,40.42,0,0,0-2.71,3.35q-1.89,2.3-3.73,4.64C800.19,763.23,798.82,765,797.46,766.83Z" transform="translate(-91.11 -183.09)"/><path class="cls-21" d="M797.46,766.72c-1.27,1.71-2.6,3.67-2.28,5.78a13,13,0,0,0,1.27,3.19,21.68,21.68,0,0,1,1.29,4.48c.48,2.23,1,4.46,1.25,6.73.34,2.55-1.23,10-1.38,12.53a2.56,2.56,0,0,1-.54,1.73,2,2,0,0,0-.47.55,1,1,0,0,0,.1.67,7.18,7.18,0,0,0,3.84,3.53A29.5,29.5,0,0,0,808,807.3a1.39,1.39,0,0,0,.7-.1,1.28,1.28,0,0,0,.54-.61c1.28-2.46,0-10.65.07-13.42,0-2.33.56-4.61.46-6.93-.08-1.85-.58-3.66-.76-5.52a32.68,32.68,0,0,1,.82-9.07c.43-2.3.85-4.6,1.4-6.88a13.15,13.15,0,0,1,1.48-4c.61-1,1.43-1.76,2.12-2.65a12,12,0,0,0,2.36-8.79c0-.31-4.44,1.11-4.82,1.28a15.15,15.15,0,0,0-4.3,2.77c-1,1-1.81,2.27-2.71,3.34q-1.89,2.29-3.73,4.64C800.19,763.14,798.82,764.93,797.46,766.72Z" transform="translate(-91.11 -183.09)"/><circle class="cls-20" cx="692.13" cy="539.07" r="7.17"/><path class="cls-20" d="M789.7,721.86a9.28,9.28,0,0,0,5.95,4.17l-.54,2c-.93,3.37-2,6.94-4.59,9.28a4.29,4.29,0,0,0-.73-3.35,12.78,12.78,0,0,0-2.43-2.55l-4.13-3.59a1.12,1.12,0,0,1-.31-.34,1.05,1.05,0,0,1,0-.78c.52-1.64,2-2.67,3.24-3.77a11.42,11.42,0,0,0,1.64-1.9C788.64,719.81,789.15,721,789.7,721.86Z" transform="translate(-91.11 -183.09)"/><path class="cls-22" d="M773.78,715l-.16-1.33c1.14.29,2.21-.67,2.93-1.67s1.4-2.17,2.5-2.58c1.34-.51,2.76.3,4,1a12.73,12.73,0,0,0,4.64,1.51,3.35,3.35,0,0,1,.77.13,2.66,2.66,0,0,1,1.35,2.29,8.58,8.58,0,0,0,.5,2.8c.31.64.84,1.12,1.17,1.75.88,1.7,0,4,1,5.68l-2.3-2.11c-.22-.19-.51-.39-.74-.23s-.2.41-.28.64a1.2,1.2,0,0,1-1.63.59,4.42,4.42,0,0,1-1.47-1.33,8.8,8.8,0,0,0-3.66-2.76,4.65,4.65,0,0,0-3.86.23c-1.08.6-1.86,2-3.18,2.07-1.8.06-2.55-3.29-3.39-4.62a1.64,1.64,0,0,0,.48-2C772.59,714.89,773.76,714.74,773.78,715Z" transform="translate(-91.11 -183.09)"/><path class="cls-5" d="M803.69,807.58a7.56,7.56,0,0,1-5.16,1.93c-.48,0-1.15.09-1.16.57a.77.77,0,0,0,.14.4,4.78,4.78,0,0,0,2.67,2.09,9.64,9.64,0,0,0,3.22.21l3.15-.17c.59,0,1.19-.06,1.78-.13s1.24-.2,1.85-.29a24.31,24.31,0,0,1,4.59-.22,1.36,1.36,0,0,0,1.13-.3c.25-.31.12-.86,0-1.31-.18-.91,0-1.87-.17-2.78a4.9,4.9,0,0,0-3.21-3.42c-1.42-.54-3.93-1.16-5.27-.26S805,806.43,803.69,807.58Z" transform="translate(-91.11 -183.09)"/><path class="cls-22" d="M806.81,753.73c.28,1.33,1.56,2.33,1.6,3.66,0,1.08-.75,2-1.3,2.92a18.26,18.26,0,0,0-1.33,3,46.09,46.09,0,0,1-3.9,7.71c-.74,1.17-1.56,2.45-1.39,3.82a5.74,5.74,0,0,0,.66,1.83l2.22,4.4a12.2,12.2,0,0,1,1.13,2.78c.19.84.21,1.71.34,2.56.35,2.7,1.61,5.42.87,8-.07.23-.3.5-.48.34a8.27,8.27,0,0,1,1.26,4.29,5.79,5.79,0,0,0,0,2.42,2.74,2.74,0,0,1,.33,1,5.49,5.49,0,0,1-.13.66,1.43,1.43,0,0,0,1.11,1.34c.6.19,1.24.18,1.84.36,1.15.33,2,1.33,3,2a6.16,6.16,0,0,0,3.41,1.11.8.8,0,0,0,.5-.1.78.78,0,0,0,.28-.61,3.36,3.36,0,0,0-1.22-2.93,1.35,1.35,0,0,1-.45-.47,1.07,1.07,0,0,1,0-.53A40.24,40.24,0,0,0,815,796a11.16,11.16,0,0,1-.12-2.31,9,9,0,0,0,.19-1.93,11.25,11.25,0,0,0-.59-1.84,13.09,13.09,0,0,1-.29-3.43,29.76,29.76,0,0,0-1-5.91,4.5,4.5,0,0,0-.92-2.13c-.46-.48-1.2-.94-1-1.58a1.93,1.93,0,0,1,.42-.63,2.49,2.49,0,0,0,.53-1.93.86.86,0,0,0,1-.47A15.48,15.48,0,0,0,821,765a3,3,0,0,1,.33-.79,3.75,3.75,0,0,1,1.43-.92,10.81,10.81,0,0,0,3.75-3.82,8.91,8.91,0,0,0,1.45-2.78,9.62,9.62,0,0,0,.2-2l.09-3.47a1.89,1.89,0,0,0-.07-.67,1.57,1.57,0,0,0-.37-.55,6.7,6.7,0,0,0-3.67-2c-.94-.17-1.91-.13-2.87-.21-1.85-.16-3.69-.73-5.54-.6a8.88,8.88,0,0,0-6.89,4.82C808.35,752.92,807.85,753.73,806.81,753.73Z" transform="translate(-91.11 -183.09)"/><path class="cls-7" d="M790.61,731.15a3.71,3.71,0,0,1-.21,1.58,1.1,1.1,0,0,1-1.29.66c.15-.33-.25-.73-.62-.68a1.15,1.15,0,0,0-.82.69,2.63,2.63,0,0,0-.24,1.61,6.42,6.42,0,0,1,.41,2c-.09.57-.5,1.14-.28,1.67a2.51,2.51,0,0,0,.53.64,1.8,1.8,0,0,1-.19,2.48l5.6.11a3.93,3.93,0,0,0,.69,2.73A17.16,17.16,0,0,0,807,753a1.11,1.11,0,0,0-.39,1.53.66.66,0,0,0,.12.17,1.59,1.59,0,0,0,1.8.1,12.23,12.23,0,0,0,1.53-1.15,4.69,4.69,0,0,1,3.16-.85c.7.06,1.38.29,2.09.33,2.07.11,3.85-1.38,5.83-2,1.46-.45,3.1-.45,4.33-1.35a1.73,1.73,0,0,0,.81-1.67,2.79,2.79,0,0,0-.61-1,16.56,16.56,0,0,1-1.61-3,18.33,18.33,0,0,0-4-5.41,38,38,0,0,0-4-3,6.79,6.79,0,0,0-1.09-.67,11.31,11.31,0,0,1-1.49-.6,7.76,7.76,0,0,1-1.54-1.73c-1.11-1.3-2.81-1.89-4.17-2.91a10.33,10.33,0,0,0-2.82-1.91c-.53-.16-1.1-.17-1.63-.33-1.21-.37-2.09-1.44-3.28-1.88a13.86,13.86,0,0,0-3-.37,6.81,6.81,0,0,1-3-1.16,4,4,0,0,0-1-.57c-1.5-.46-1.62,2.33-1.76,3.3A28.85,28.85,0,0,0,790.61,731.15Z" transform="translate(-91.11 -183.09)"/><path class="cls-20" d="M792.07,740.51c.25,2.72-1.8,5.36-1.2,8,.12.57.37,1.11.46,1.67.25,1.58-.7,3.08-1.6,4.4L782,766a6.61,6.61,0,0,1-1.11,1.36c-1.48,1.34-3.7,1.18-5.64,1.58a9.62,9.62,0,0,0-3.79,1.66.26.26,0,0,0-.05.34,3.27,3.27,0,0,0,2.82,1.33c.2.27,0,.67-.28.85s-1,.37-1.07,1.08a1.18,1.18,0,0,0,.14.71,2.25,2.25,0,0,0,1.35.94c2.67.82,5.58-.62,7.59-2.58s3.44-4.44,5.41-6.43c1.09-1.11,2.34-2.05,3.45-3.12a38.9,38.9,0,0,0,5.67-7.33,8.07,8.07,0,0,0,1.22-2.5c.21-.89.12-1.82.36-2.7a9.81,9.81,0,0,1,1.85-3A10,10,0,0,0,802,741.6a6.26,6.26,0,0,0-3.82-5.43,3.48,3.48,0,0,0-2.14-.13,5.11,5.11,0,0,0-2.18,1.74l-1.47,1.7a3.93,3.93,0,0,0-.86,1.3,1.37,1.37,0,0,0,.3,1.44" transform="translate(-91.11 -183.09)"/><path class="cls-7" d="M796,729.32a4.24,4.24,0,0,0-2.86.89,4,4,0,0,0-.72,1.13,11.35,11.35,0,0,0-1.42,4.49,20.87,20.87,0,0,0,.51,3.75,13.69,13.69,0,0,1-.33,3.16,22.63,22.63,0,0,0,4.08-1.57,13.12,13.12,0,0,1,2.38-1.24c1.21-.4,3.26.29,4.4.86.07-.81-.54-2.22-.48-3a3.45,3.45,0,0,1,.18-1,7.52,7.52,0,0,1,.61-1,4,4,0,0,0-.35-4.66,6.4,6.4,0,0,0-4.16-1.76,17.71,17.71,0,0,0-2.91-.11" transform="translate(-91.11 -183.09)"/><path class="cls-23" d="M645,706l-6.57-9.53a9,9,0,0,0-.55-2.91c-.43-.55-.1-1.78-.1-1.78s.47-.66.07-.73-.07-1.57-.07-1.57l0-2.39a8.53,8.53,0,0,0,.07-2.85.88.88,0,0,1,0-1s.36-1.32,0-1.67-.28-2.38-.19-4a6.16,6.16,0,0,0-.64-2.79c0-.24-2.43-2.63-2.43-2.85a5.88,5.88,0,0,0-2.46-1.33c-.92-.23-1.38-.43-1.35-.56s-1.44-.61-1.44-.61a2.9,2.9,0,0,1-1.78-.73c-.5-.65-2-.83-2-.84l0-.13a.89.89,0,0,0,0-.14,5.82,5.82,0,0,0,.34-.6l.08-.18a2.62,2.62,0,0,0,1.51-.47,2.06,2.06,0,0,0,.74-1.47,3.27,3.27,0,0,0-.36-1.63,2.76,2.76,0,0,1-.53-1.73c.06-.25.22-.48.3-.73a2,2,0,0,0-.22-1.46c-.24-.44-.56-.83-.82-1.26a5,5,0,0,1-.65-1.8,2.77,2.77,0,0,0-.24-1,1.89,1.89,0,0,0-.54-.55,5.47,5.47,0,0,0-3.3-1,15.05,15.05,0,0,1-2.5.15,8.25,8.25,0,0,1-1.46-.38,3.77,3.77,0,0,0-3.11.16c-.9.59-1.26,1.75-1.87,2.67a20.06,20.06,0,0,0-1.73,2.33v0a2.64,2.64,0,0,0-.23.61,4.28,4.28,0,0,0,.14,2,1.4,1.4,0,0,0,.49.9,3,3,0,0,0,1.08.22l0,.17a7,7,0,0,0,4.86,8.16v.18a4.58,4.58,0,0,1,0,.53h0s-3.09-.64-3.92-.21-2.45.77-2.7,1-.86.07-1.41,1.51-.62,2.91-1.34,3.58-1.07,1.14-1.1,1.63.09.61-.19.76-.66.8-.55,1a.86.86,0,0,1-.33.92,1,1,0,0,0-.43.92s-.19.67-.62.83-.71,1.16-.71,1.16l-1.39,1.6-2.76-3.05a1.17,1.17,0,0,0-1.64-.08l-1.36,1.22a2.67,2.67,0,0,0-1.35.8,3.54,3.54,0,0,0-.71,1l-.74.67a1.9,1.9,0,0,0-.19,2.08l1.77,2h0a3.16,3.16,0,0,0-1.71.7c-2.64,2.33-2.67,4.47-2.27,5.45s3.74,4.75,3.74,4.75a15.06,15.06,0,0,0,4.76,3.88h0l0,0a1.46,1.46,0,0,0-.16.19l0,.06,0,.06-.05.07,0,.06,0,.09a.21.21,0,0,0,0,.06l-.06.12a.05.05,0,0,0,0,0c0,.05-.05.11-.08.17l0,.06-.05.12,0,.08,0,.12a.29.29,0,0,0,0,.09.93.93,0,0,1,0,.13c0,.05,0,.05,0,.08a1.88,1.88,0,0,0,0,.22.15.15,0,0,1,0,.09s0,.1,0,.15a.47.47,0,0,0,0,.12l0,.15v.12a.52.52,0,0,1,0,.17c0,.06,0,.07,0,.11v.29a17,17,0,0,0,.15,4.11,2,2,0,0,0,1.63,1.22,1.82,1.82,0,0,0,.52,0c1.6-.28,5.33-.92,6.67-.67a11.23,11.23,0,0,0,3.31-.27l.28,0,.19.61.6-.17.52.3.33.19c.61,2.05,3.07,1.35,3.07,1.35l.58.33,5.93.16a12.62,12.62,0,0,0,2.1,1l.3.06a11.5,11.5,0,0,0,1.66,0c.46,0,.81,0,.81,0s-.06-1.61-.15-3.41a50.37,50.37,0,0,0,5.49-.45c3.17-.55,4.49-3.43,5-5a13.82,13.82,0,0,1,.31,1.91,13.78,13.78,0,0,0,.5,1.66,5.6,5.6,0,0,0,.66,1.23c2.34-.8.92-2,.43-2.51s.34-.95.34-.95.64-.43.58-.83-.09-.83,2-.8S645,706,645,706Zm-32.43-19.57a15.59,15.59,0,0,0,.58,2.56,3.38,3.38,0,0,1,.07,1c-1.24-.1-2.53-.15-2.53-.15a.29.29,0,0,1,.07.16l-.2,0-.28-.06,2.28-3.47Zm-4.52,7.19,2.14.33.18,0a8.27,8.27,0,0,0-.11,1s.05.07.12.11a2.92,2.92,0,0,0,0,.51,5.93,5.93,0,0,0,2.18.84c0,.06,0,.12,0,.17h0c-1-.53-2.62-.78-2.8-1.18s-5.62-2.29-5.62-2.29l-.54-.27,1.43.27.39,0A22.72,22.72,0,0,0,608.06,693.63Z" transform="translate(-91.11 -183.09)"/><path class="cls-24" d="M638,707.34s-.85,5.15-5.17,5.91-18.75.61-18.75.61-8.26-1.19-11.24-8.16-4.9-9.75-2.33-9.87,16.35,4.67,17.14,4.72S638.78,690,638,707.34Z" transform="translate(-91.11 -183.09)"/><path class="cls-21" d="M638,707.34s-.85,5.15-5.17,5.91-18.75.61-18.75.61-8.26-1.19-11.24-8.16-4.9-9.75-2.33-9.87,16.35,4.67,17.14,4.72S638.78,690,638,707.34Z" transform="translate(-91.11 -183.09)"/><path class="cls-5" d="M599.33,713.07a2,2,0,0,0,1.61,1.22,2.27,2.27,0,0,0,.52,0c1.58-.28,5.3-.92,6.61-.67a11.38,11.38,0,0,0,3.28-.27c.69-.13,1.19-.25,1.19-.25s-1.22-4.05-1.37-4.17-5.48-3.33-5.48-3.33l-4.22-.3h0a2.17,2.17,0,0,0-1.43.84,4.49,4.49,0,0,0-.85,2.87A16.74,16.74,0,0,0,599.33,713.07Z" transform="translate(-91.11 -183.09)"/><path class="cls-21" d="M599.33,713.07a2,2,0,0,0,1.61,1.22,19,19,0,0,1-1.15-1.67l0-3a5.2,5.2,0,0,1,1.66-4.38h0s-2.22.15-2.28,3.71A17.28,17.28,0,0,0,599.33,713.07Z" transform="translate(-91.11 -183.09)"/><path class="cls-25" d="M617.62,706.61l3.93-3.07,6.18-6.09-1.66-.08c-.25.16-1,.67-1,1.27s-1.67.06-2.52.48-5,5.77-5.76,5.73-1.31-.37-1.61.15l0,0Z" transform="translate(-91.11 -183.09)"/><path class="cls-25" d="M600,706.11l.43.2a27.09,27.09,0,0,1,6.94,4.44,28.54,28.54,0,0,0,4,2.57c.69-.13,1.19-.26,1.19-.26s-1.22-4-1.37-4.17-5.48-3.33-5.48-3.33l-4.22-.3h0A2.21,2.21,0,0,0,600,706.11Z" transform="translate(-91.11 -183.09)"/><path class="cls-24" d="M591.75,697.39a40.44,40.44,0,0,0,3.71,4.72,14.37,14.37,0,0,0,5.09,4,26.54,26.54,0,0,1,6.94,4.44,31.12,31.12,0,0,0,4.23,2.73l.37.22.83.48.44.25,2-1.64c1-.82,2-1.63,2-1.66s.42-1.13.33-1.19-.26-.45-.64-.94a4.27,4.27,0,0,0-1.55-1.28,4.38,4.38,0,0,1-2-2.1l-.33-.22a3.92,3.92,0,0,0-1.37-.61c-.67-.09-1.92-1.46-1.92-1.46a3.72,3.72,0,0,1-1.19-1.24c-.33-.67-5-3.92-5.48-4.22L614.7,705l2.74,1.76,3.93-3.08,6.18-6.09-2-.09c-3-.13-8.34-.33-9-.18a5.21,5.21,0,0,1-1.67.11,5.84,5.84,0,0,1-2.52-.46c-1-.53-2.59-.78-2.78-1.18s-5.57-2.27-5.57-2.27-7.33-3.9-10-1.59S591.35,696.41,591.75,697.39Z" transform="translate(-91.11 -183.09)"/><path class="cls-26" d="M615.4,675l.94,3.14,1.22,7.06,4.48.3,1.28-2.13,1.29-2.15s.81-2.85,1.39-5.61c.51-2.44.85-4.81.29-5.07s-.82-1.05-1-1.94a3.2,3.2,0,0,1-.07-.33,17.42,17.42,0,0,1-.3-2.27s-9.38-.48-8.07,3.38a6.28,6.28,0,0,1,.35,2.06,3,3,0,0,1,0,.52A4.37,4.37,0,0,1,615.4,675Z" transform="translate(-91.11 -183.09)"/><path class="cls-27" d="M613.46,674.53l.33,5.33.76,4.53.85,2.11.76,11.49s7.34.85,9.13,0a.75.75,0,0,0,.33-.25c2.16-3.26,1.45-12.69,1.45-12.69l.82-6.08-.54-3.16-1.34-.14-1-.11s-.23.28-.56.72c-.9,1.19-2.56,3.54-2.45,4.51.15,1.33-.18,2.71-.7,2.92s-.95.58-1,.22a1.64,1.64,0,0,1-.09-1,8,8,0,0,0-.4-2.1,8.79,8.79,0,0,1-.76-2.64,3.16,3.16,0,0,0-.33-1.92c-.24-.22-.58-.43-.31-1.4s-1.2-2.87-1.2-2.87Z" transform="translate(-91.11 -183.09)"/><path class="cls-25" d="M623.15,687.83l.31,9.1,1.75,1a.86.86,0,0,0,.34-.26C627.7,694.4,627,685,627,685l.82-6.09-.55-3.16-1.33-.14c.51-2.44.84-4.81.29-5.07s-.82-1-1-1.94h0l-1,6.44s.08.58.1,1.18a3.36,3.36,0,0,1-.07,1.14,3.54,3.54,0,0,0-.06,1.52,12.3,12.3,0,0,0-1,4.49C623.08,685.64,623.15,687.83,623.15,687.83Z" transform="translate(-91.11 -183.09)"/><path class="cls-5" d="M625.22,668.41s1.54.19,2,.83A2.87,2.87,0,0,0,629,670s1.46.48,1.43.6.43.31,1.33.55a6.18,6.18,0,0,1,2.44,1.34c0,.2,2.4,2.58,2.4,2.83a6,6,0,0,1,.64,2.77c-.09,1.61-.18,3.66.19,4s0,1.65,0,1.65a.88.88,0,0,0,0,1,8.41,8.41,0,0,1-.07,2.83l0,2.38s-.34,1.49.06,1.55-.06.73-.06.73-.34,1.22.09,1.77a9.07,9.07,0,0,1,.54,2.89l6.52,9.47s.09,1.73-2,1.7-2,.4-2,.79-.58.82-.58.82-.82.43-.33.95,1.89,1.7-.43,2.49a5.46,5.46,0,0,1-.66-1.21,13.58,13.58,0,0,1-.49-1.65s-.21-2.31-.64-2.61-.37-1.77-.37-1.77.61-1.19-.24-1.67l-13.21-7.33-.3-9.1s-.21-6.73,1.07-9a3.59,3.59,0,0,1,.06-1.53,8,8,0,0,0,0-2.31Z" transform="translate(-91.11 -183.09)"/><path class="cls-25" d="M617.24,672.08s-3-.63-3.88-.2-2.43.76-2.66,1-.85.06-1.4,1.49-.61,2.89-1.31,3.56-1.07,1.13-1.1,1.62.09.6-.18.75-.67.8-.55,1,6.33,5.6,6.33,5.6a15.1,15.1,0,0,0,.58,2.56c.28.52-.3,7.64-.91,8.13s4.09.44,4.09.44.22-4.66.4-4.91a49.23,49.23,0,0,0-.12-5.24,30.26,30.26,0,0,1,.36-5.39,24.08,24.08,0,0,0,.34-4.87,10.17,10.17,0,0,1,.77-2.77C618.43,674.37,617.24,672.08,617.24,672.08Z" transform="translate(-91.11 -183.09)"/><path class="cls-5" d="M617.15,672s-3-.63-3.88-.21-2.43.77-2.66,1-.86.06-1.4,1.5-.61,2.89-1.31,3.56-1.07,1.12-1.1,1.61.09.61-.18.76-.67.79-.55,1,6.33,5.61,6.33,5.61a14.82,14.82,0,0,0,.58,2.55c.28.52-.3,7.64-.91,8.13s4.11.44,4.11.44.21-4.66.39-4.91a49.29,49.29,0,0,0-.12-5.24,29.53,29.53,0,0,1,.37-5.39,25,25,0,0,0,.35-4.87,10.26,10.26,0,0,1,.77-2.77C618.37,674.27,617.15,672,617.15,672Z" transform="translate(-91.11 -183.09)"/><path class="cls-25" d="M616.83,669.41a6,6,0,0,1,.36,2.06,7,7,0,0,0,8-3.17,17,17,0,0,1-.3-2.27S615.52,665.55,616.83,669.41Z" transform="translate(-91.11 -183.09)"/><path class="cls-26" d="M612.21,664.6a7,7,0,1,0,.15-1.45A7.07,7.07,0,0,0,612.21,664.6Z" transform="translate(-91.11 -183.09)"/><path class="cls-5" d="M607.73,680.74l-1.67.52a.84.84,0,0,1-.33.91,1,1,0,0,0-.42.92s-.19.66-.61.82-.7,1.16-.7,1.16l-1.4,1.61s-.52.43-.43.64-.55.27-.55.27L602,693l2.9.55,1.79-.18,1.46-.55,1.28-.76.58-1.49,2.56-3.9Z" transform="translate(-91.11 -183.09)"/><path class="cls-26" d="M602,688s-3.71-5.36-6.49-2.47,1.13,7.59,2,7.43,5.27-.39,5.27-.39Z" transform="translate(-91.11 -183.09)"/><rect class="cls-5" x="591.61" y="678.51" width="15.09" height="19.44" rx="0.51" transform="translate(-377.34 725.92) rotate(-62.96)"/><rect class="cls-7" x="593.03" y="680.04" width="12.31" height="16.34" transform="translate(-377.3 725.93) rotate(-62.96)"/><circle class="cls-28" cx="500.24" cy="501.11" r="0.27"/><circle class="cls-28" cx="515.99" cy="509.18" r="0.44"/><path class="cls-26" d="M599.64,689.14c0,4,8.27,4.87,8.27,4.87l2.13.33,1,.15.4-3.92s-.44-.07-1-.2c-.81-.18-1.85-.51-2.07-1C608,688.65,599.66,685.12,599.64,689.14Z" transform="translate(-91.11 -183.09)"/><path class="cls-25" d="M612.36,663.15a.89.89,0,0,1,.51.23c.23.25.25.69.55.85a.77.77,0,0,0,.37,0c.81-.12,1.27-1,2.05-1.28a2.06,2.06,0,0,1,1.36.11,1.13,1.13,0,0,1,.45.29c.26.34.08.84.2,1.24.17.57.84.79,1.43.87a2.47,2.47,0,0,1,1.63.55,1.47,1.47,0,0,1,.29,1.18,1.09,1.09,0,0,0,0,.44c.16.45.95.38,1.16,0s.1-.48.46-.55a1.57,1.57,0,0,1,.74.13,5.77,5.77,0,0,0,1.93.3,7,7,0,1,0-12.62-5.92,6.64,6.64,0,0,0-.51,1.5Z" transform="translate(-91.11 -183.09)"/><path class="cls-5" d="M621.2,667.48a.79.79,0,0,1,0-.43,1.5,1.5,0,0,0-.29-1.18,2.54,2.54,0,0,0-1.64-.56c-.58-.07-1.26-.29-1.42-.86-.12-.41.06-.9-.2-1.24a1.13,1.13,0,0,0-.45-.29,2.12,2.12,0,0,0-1.36-.12c-.78.26-1.25,1.17-2.06,1.28a.56.56,0,0,1-.36,0c-.31-.15-.33-.59-.55-.84s-1.08-.14-1.53-.43a1.4,1.4,0,0,1-.49-.9,4.33,4.33,0,0,1-.13-2c.26-1.13,1.27-1.91,1.92-2.88s.94-2,1.84-2.64a3.73,3.73,0,0,1,3.09-.16,8.15,8.15,0,0,0,1.45.38,15.75,15.75,0,0,0,2.47-.15,5.41,5.41,0,0,1,3.28,1,2,2,0,0,1,.53.54,2.77,2.77,0,0,1,.24,1,4.88,4.88,0,0,0,.64,1.78c.26.43.58.82.81,1.26a2,2,0,0,1,.22,1.45c-.08.25-.23.47-.29.73a2.71,2.71,0,0,0,.52,1.71,3.26,3.26,0,0,1,.36,1.62,2.05,2.05,0,0,1-.73,1.46,2.62,2.62,0,0,1-1.55.47,5.43,5.43,0,0,1-2-.3,1.75,1.75,0,0,0-.75-.13c-.35.08-.31.29-.46.56S621.36,667.94,621.2,667.48Z" transform="translate(-91.11 -183.09)"/><path class="cls-25" d="M617.44,706.79l3.93-3.07,6.18-6.09-2-.09a1.32,1.32,0,0,0-.43.83c0,.74-1.67,0-2.52.48s-5,5.76-5.76,5.73-1.31-.37-1.61.14l0,0a.86.86,0,0,1-.47.27Z" transform="translate(-91.11 -183.09)"/><path class="cls-24" d="M609.53,706.58l2,6.3.31,1,.94-.26,2.07-.57,9.23-2.53a7.91,7.91,0,0,0,3.33-.89,10.12,10.12,0,0,1,5.73-1.25c1.22.12,2.58-.41,3.7-2.49,0,0,2.56-7.55-3.89-9.71s-6.76,1.15-6.76,1.15l-.09,0c-.25.16-1,.67-1,1.28s-1.67.05-2.52.47-5,5.77-5.76,5.73-1.31-.37-1.61.15l0,0c-.23.31-.9.38-1.35.39h-.42l-.06,0-.47.14Z" transform="translate(-91.11 -183.09)"/><path class="cls-25" d="M610,694.34l1,.15.4-3.92s-.44-.07-1-.19A20.78,20.78,0,0,1,610,694.34Z" transform="translate(-91.11 -183.09)"/><path class="cls-25" d="M634.93,676s2.83-.83,2.13,7.21a22.45,22.45,0,0,1-5.94,13.12s-6,2.65-8.73,2.22a46.75,46.75,0,0,0-4.69-.52,6.89,6.89,0,0,0-2.74-.73c-1.52-.06-4.72-1-4.78-1.31s.79-4.77.43-5.11c0,0,4.26.18,4.68.48s1,.09,1.5,0a5.16,5.16,0,0,1,4.62-.23,2.74,2.74,0,0,0,1.31-.16,1.33,1.33,0,0,1,1-.06,2.72,2.72,0,0,0,.66-.33c.09-.12.83,0,.83,0a.34.34,0,0,0,.44-.17v0a2,2,0,0,1,.43-.67s.82-4.63,2.37-6.36a1,1,0,0,0,.34-.89C628.63,682,631.28,675,634.93,676Z" transform="translate(-91.11 -183.09)"/><path class="cls-5" d="M634.85,675.38s2.84-.82,2.14,7.21a22.45,22.45,0,0,1-5.94,13.12s-6,2.65-8.74,2.22-4.69-.52-4.69-.52a6.85,6.85,0,0,0-2.73-.73c-1.53-.07-4.72-1-4.78-1.31s.79-4.78.42-5.12c0,0,4.27.18,4.69.49s1,.08,1.49,0a5.17,5.17,0,0,1,4.63-.24,2.84,2.84,0,0,0,1.31-.15,1.35,1.35,0,0,1,1-.07,2.78,2.78,0,0,0,.67-.33c.09-.12.82,0,.82,0a.34.34,0,0,0,.44-.17v0a2,2,0,0,1,.43-.67s.82-4.63,2.38-6.36a1,1,0,0,0,.33-.89C628.56,681.34,631.2,674.41,634.85,675.38Z" transform="translate(-91.11 -183.09)"/><path class="cls-25" d="M612.87,705.58l4,4.86,0,0c0-.1.43-1.13.34-1.19a5.67,5.67,0,0,0-2.19-2.22,4.2,4.2,0,0,1-1.72-1.57Z" transform="translate(-91.11 -183.09)"/><path class="cls-25" d="M612.92,714l.44.25,2-1.64c1-.82,2-1.63,2-1.67s.42-1.12.33-1.18-.26-.46-.64-1c-2.73-.76-1,1.13-.76,1.22a2.78,2.78,0,0,0-3.5,2.85A4.21,4.21,0,0,0,612.92,714Z" transform="translate(-91.11 -183.09)"/><path class="cls-5" d="M616.28,715.53l.58.33,5.88.15a11.7,11.7,0,0,0,2.08,1l.29.07a15,15,0,0,0,1.64,0c.45,0,.8,0,.8,0s-.28-7.41-.49-8.19c-.1-.38-.59-.3-1.08-.11a8.61,8.61,0,0,0-1.05.53,19.54,19.54,0,0,0-2.89.46c-.4.21-1.52-.12-2.22,0s-2-.82-2-.82c-3.41-1.13-1.49,1-1.25,1.06a2.78,2.78,0,0,0-3.5,2.86A2.35,2.35,0,0,0,616.28,715.53Z" transform="translate(-91.11 -183.09)"/><path class="cls-29" d="M624.78,712.67a9.86,9.86,0,0,0,2,4.44c.45,0,.8,0,.8,0s-.28-7.41-.49-8.19c-.1-.37-.59-.29-1.08-.1A8.54,8.54,0,0,0,624.78,712.67Z" transform="translate(-91.11 -183.09)"/><path class="cls-25" d="M624.78,712.67a9.86,9.86,0,0,0,2,4.44c.45,0,.8,0,.8,0s-.28-7.41-.49-8.19c-.1-.37-.59-.29-1.08-.1A8.54,8.54,0,0,0,624.78,712.67Z" transform="translate(-91.11 -183.09)"/><path class="cls-21" d="M623.77,712.87c.41,1.48.4,3.14,1.05,4.15a1.5,1.5,0,0,0,.29.06,11.25,11.25,0,0,0,1.64,0c.45,0,.8,0,.8,0s-.28-7.41-.49-8.19c-.1-.37-.59-.29-1.08-.1a8.61,8.61,0,0,0-1.05.53S623.26,711,623.77,712.87Z" transform="translate(-91.11 -183.09)"/><path class="cls-25" d="M603.5,697.85a12.2,12.2,0,0,1,5.4,4.32Z" transform="translate(-91.11 -183.09)"/><g class="cls-30"><path class="cls-31" d="M627.22,661.32a.08.08,0,0,1,0,.07,1.86,1.86,0,0,1-.1.25A2.08,2.08,0,0,1,627.22,661.32Z" transform="translate(-91.11 -183.09)"/><path class="cls-31" d="M610.71,659.85a2.32,2.32,0,0,1,.23-.62,1,1,0,0,1-.05.16,4.32,4.32,0,0,0,.14,2,1.36,1.36,0,0,0,.49.9c.45.29,1.15,0,1.52.43s.25.69.56.85a.63.63,0,0,0,.36,0c.81-.12,1.27-1,2-1.28a2,2,0,0,1,1.36.12.93.93,0,0,1,.46.29c.26.33.07.83.19,1.23.17.57.85.79,1.43.87a2.43,2.43,0,0,1,1.63.56,1.45,1.45,0,0,1,.29,1.17,1.09,1.09,0,0,0,0,.44c.16.45,1,.38,1.16,0s.11-.48.46-.55a1.61,1.61,0,0,1,.75.13,5.43,5.43,0,0,0,2,.3,2.69,2.69,0,0,0,1.55-.47,1.91,1.91,0,0,0,.47-.58,1.88,1.88,0,0,1-.67,1,2.57,2.57,0,0,1-1.54.47,5.74,5.74,0,0,1-2-.29,1.46,1.46,0,0,0-.74-.13c-.36.07-.31.29-.46.55s-1,.43-1.16,0a1,1,0,0,1,0-.43,1.47,1.47,0,0,0-.29-1.18,2.54,2.54,0,0,0-1.63-.56c-.59-.07-1.26-.29-1.43-.86-.12-.41.06-.9-.2-1.24a1.06,1.06,0,0,0-.45-.29,2.11,2.11,0,0,0-1.36-.12c-.78.26-1.24,1.17-2.05,1.28a.59.59,0,0,1-.37,0c-.3-.15-.33-.59-.55-.84s-1.07-.14-1.52-.43a1.41,1.41,0,0,1-.5-.9A4.32,4.32,0,0,1,610.71,659.85Z" transform="translate(-91.11 -183.09)"/></g><path class="cls-25" d="M627.69,684.21c-.56.76-1.19,1.45-1.69,2.25a4.34,4.34,0,0,0-.74,2.66,7,7,0,0,0,1.07-1.9,26.57,26.57,0,0,1,2-3.08c.13-.2,1-1.33.54-1.38S627.88,684,627.69,684.21Z" transform="translate(-91.11 -183.09)"/><path class="cls-32" d="M630.69,755.52c.4,1.29.81,2.59,1.31,3.85a32.82,32.82,0,0,0,3.41,6.2,45.27,45.27,0,0,0,2.81,3.68c1.25,1.48,2.67,3,3.09,4.85a24.79,24.79,0,0,1,.28,3.33,4.08,4.08,0,0,0,1.37,3,5.05,5.05,0,0,0,2.26.75c.56.09,1.27.12,1.56-.37a1.33,1.33,0,0,0,.16-.65l.14-1.63c0-.35.15-.8.5-.82s.53.45.83.67a.9.9,0,0,0,1.22-.43,2,2,0,0,0,0-1.43,6.8,6.8,0,0,0-3.49-4.33,10.12,10.12,0,0,1-1.7-.88,5.92,5.92,0,0,1-1.34-1.69,104.74,104.74,0,0,1-8.38-15.75,11.59,11.59,0,0,1-.86-3.11,20,20,0,0,1,.13-3.28,18.55,18.55,0,0,0-.54-5.84,4.58,4.58,0,0,0-.56-1.42,3.17,3.17,0,0,0-4.33-.63,4.46,4.46,0,0,0-1.72,3.16,9.06,9.06,0,0,0,.86,3.28Q629.21,750.76,630.69,755.52Z" transform="translate(-91.11 -183.09)"/><path class="cls-21" d="M630.69,755.52c.4,1.29.81,2.59,1.31,3.85a32.82,32.82,0,0,0,3.41,6.2,45.27,45.27,0,0,0,2.81,3.68c1.25,1.48,2.67,3,3.09,4.85a24.79,24.79,0,0,1,.28,3.33,4.08,4.08,0,0,0,1.37,3,5.05,5.05,0,0,0,2.26.75c.56.09,1.27.12,1.56-.37a1.33,1.33,0,0,0,.16-.65l.14-1.63c0-.35.15-.8.5-.82s.53.45.83.67a.9.9,0,0,0,1.22-.43,2,2,0,0,0,0-1.43,6.8,6.8,0,0,0-3.49-4.33,10.12,10.12,0,0,1-1.7-.88,5.92,5.92,0,0,1-1.34-1.69,104.74,104.74,0,0,1-8.38-15.75,11.59,11.59,0,0,1-.86-3.11,20,20,0,0,1,.13-3.28,18.55,18.55,0,0,0-.54-5.84,4.58,4.58,0,0,0-.56-1.42,3.17,3.17,0,0,0-4.33-.63,4.46,4.46,0,0,0-1.72,3.16,9.06,9.06,0,0,0,.86,3.28Q629.21,750.76,630.69,755.52Z" transform="translate(-91.11 -183.09)"/><path class="cls-33" d="M611.26,810a4.47,4.47,0,0,0,1.88.22c.05-.52.75-.63,1.27-.61a1.5,1.5,0,0,1,.72.17c.13.08.23.2.36.29a1.56,1.56,0,0,0,.73.19l2.71.23a8.18,8.18,0,0,0,3.59-.24,1.21,1.21,0,0,0,.58-.38c.31-.44,0-1.07-.42-1.39s-1-.47-1.4-.79c-.94-.72-1.07-2.06-1.57-3.13a9,9,0,0,0-1.29-1.88,7.22,7.22,0,0,0-1.28-1.31,6.83,6.83,0,0,0-3.61-.88,2.42,2.42,0,0,0-2.39.67c-.8,1-.48,3-.43,4.16A30.65,30.65,0,0,0,611.26,810Z" transform="translate(-91.11 -183.09)"/><path class="cls-21" d="M611.26,810a4.47,4.47,0,0,0,1.88.22c.05-.52.75-.63,1.27-.61a1.5,1.5,0,0,1,.72.17c.13.08.23.2.36.29a1.56,1.56,0,0,0,.73.19l2.71.23a8.18,8.18,0,0,0,3.59-.24,1.21,1.21,0,0,0,.58-.38c.31-.44,0-1.07-.42-1.39s-1-.47-1.4-.79c-.94-.72-1.07-2.06-1.57-3.13a9,9,0,0,0-1.29-1.88,7.22,7.22,0,0,0-1.28-1.31,6.83,6.83,0,0,0-3.61-.88,2.42,2.42,0,0,0-2.39.67c-.8,1-.48,3-.43,4.16A30.65,30.65,0,0,0,611.26,810Z" transform="translate(-91.11 -183.09)"/><path class="cls-22" d="M612.36,757.33a1.89,1.89,0,0,0-1,2.15,8.16,8.16,0,0,0,1.09,2.36c1.21,2.15,1.73,4.62,2.74,6.87.76,1.67,1.78,3.23,2.53,4.92a8.41,8.41,0,0,1,.75,5.38c-.22.87-.64,1.66-.93,2.52a13.79,13.79,0,0,0-.54,2.85,54.36,54.36,0,0,0-.2,9.88,2.93,2.93,0,0,0,.25,1.17c.17.33.46.67.33,1-.06.14-.18.24-.24.37-.17.37.17.77.49,1a.85.85,0,0,1-.53.41,1.23,1.23,0,0,1,.53,1.39c-.28.05-.29.48-.12.7s.46.37.59.63a.88.88,0,0,1-.48,1.09,2.34,2.34,0,0,1-1.31.1,13.46,13.46,0,0,1-2.18-.48,1.57,1.57,0,0,1-1.27-1.63,23.33,23.33,0,0,1-.15-4.09c.11-6.61,0-13.23-.29-19.84a22.64,22.64,0,0,0-2-7.7,41,41,0,0,0-1.89-3.67c-1.49-2.72-2.8-5.73-2.46-8.81,0-.34.15-.73.48-.79a.72.72,0,0,1,.38.07,16.56,16.56,0,0,1,2,1.09A7.6,7.6,0,0,0,612.36,757.33Z" transform="translate(-91.11 -183.09)"/><path class="cls-21" d="M612.36,757.33a1.89,1.89,0,0,0-1,2.15,8.16,8.16,0,0,0,1.09,2.36c1.21,2.15,1.73,4.62,2.74,6.87.76,1.67,1.78,3.23,2.53,4.92a8.41,8.41,0,0,1,.75,5.38c-.22.87-.64,1.66-.93,2.52a13.79,13.79,0,0,0-.54,2.85,54.36,54.36,0,0,0-.2,9.88,2.93,2.93,0,0,0,.25,1.17c.17.33.46.67.33,1-.06.14-.18.24-.24.37-.17.37.17.77.49,1a.85.85,0,0,1-.53.41,1.23,1.23,0,0,1,.53,1.39c-.28.05-.29.48-.12.7s.46.37.59.63a.88.88,0,0,1-.48,1.09,2.34,2.34,0,0,1-1.31.1,13.46,13.46,0,0,1-2.18-.48,1.57,1.57,0,0,1-1.27-1.63,23.33,23.33,0,0,1-.15-4.09c.11-6.61,0-13.23-.29-19.84a22.64,22.64,0,0,0-2-7.7,41,41,0,0,0-1.89-3.67c-1.49-2.72-2.8-5.73-2.46-8.81,0-.34.15-.73.48-.79a.72.72,0,0,1,.38.07,16.56,16.56,0,0,1,2,1.09A7.6,7.6,0,0,0,612.36,757.33Z" transform="translate(-91.11 -183.09)"/><path class="cls-22" d="M601.18,749.29a2.94,2.94,0,0,0-1.44-.45,2.88,2.88,0,0,0-1.56.79,15.6,15.6,0,0,0-1.56,1.37,8.27,8.27,0,0,0-1.85,8.22,16.11,16.11,0,0,0,2.27,4l1.8,2.58c2.74,3.95,5.49,7.89,8.37,11.74a.44.44,0,0,0,.31.42c.1,0,.23,0,.3.11a.29.29,0,0,1,0,.18,2.4,2.4,0,0,1-.16.83.41.41,0,0,0,0,.29c.09.21.49.09.61.29s0,.31-.13.42-.24.24-.22.4.29.33.28.53-.1.2-.17.29a.74.74,0,0,0,.09.94c.19,1.88-.83,3.67-1,5.54-.33,3,1,5.85,1.18,8.82a2.3,2.3,0,0,0,.19,1c.28.52,1,.83,1,1.41a5.75,5.75,0,0,1-.2.71,4.94,4.94,0,0,0,.11,1c0,.33-.29.74-.6.61.23.78.44,1.58.63,2.38l6.29.52a5.7,5.7,0,0,0,0-1.7c-.13-.61-.41-1.18-.55-1.78a2.1,2.1,0,0,1,.25-1.79.68.68,0,0,1-.69-.57,2.69,2.69,0,0,1,0-1c.17-1.64-.52-3.26-.5-4.91a23.78,23.78,0,0,1,.71-3.82c.49-2.74,0-5.7,1.19-8.2.74-1.5,1.76-3.16.93-4.62-.41-.72-1.13-1.21-1.6-1.89a7.79,7.79,0,0,1-.85-2.07,70.28,70.28,0,0,0-3.91-8.63,8.89,8.89,0,0,1-.85-2.27,12.31,12.31,0,0,1-.1-2.1,31.49,31.49,0,0,0-.23-3.76,2.73,2.73,0,0,0-1.46-2.46C605.87,751.28,603.41,750.47,601.18,749.29Z" transform="translate(-91.11 -183.09)"/><path class="cls-33" d="M608.73,812.28a4.61,4.61,0,0,0,1.88.22c0-.52.75-.64,1.27-.61a1.39,1.39,0,0,1,.72.17c.13.08.23.2.36.29a1.57,1.57,0,0,0,.74.19l2.7.22a8,8,0,0,0,3.59-.23,1.16,1.16,0,0,0,.58-.39,1.09,1.09,0,0,0-.43-1.38c-.42-.32-1-.47-1.39-.8-.94-.71-1.07-2.05-1.57-3.12a9,9,0,0,0-1.29-1.88,7.22,7.22,0,0,0-1.28-1.31,6.72,6.72,0,0,0-3.61-.88,2.41,2.41,0,0,0-2.39.67c-.8,1-.48,3-.43,4.16A29.44,29.44,0,0,0,608.73,812.28Z" transform="translate(-91.11 -183.09)"/><circle class="cls-32" cx="545.53" cy="549.05" r="6.24"/><path class="cls-32" d="M630.76,734a5.87,5.87,0,0,1-3.35,1A20.91,20.91,0,0,0,620.2,737a2.79,2.79,0,0,0-.83.57,2.32,2.32,0,0,0-.42.9,5.69,5.69,0,0,0-.24,2.17,6.31,6.31,0,0,0,.6,2,11.14,11.14,0,0,0,3.87,4.41,3.17,3.17,0,0,0,1,.47,5.53,5.53,0,0,0,2.42-.52,4,4,0,0,1,2.24.07c.66.23,1.39.64,2,.36a2,2,0,0,0,.93-1.06,35.59,35.59,0,0,0,1.71-3.71,14.3,14.3,0,0,1,.61-1.45c.73-1.38,2-2.44,2.6-3.87a.85.85,0,0,0,.06-.73,1.05,1.05,0,0,0-.46-.35,11.24,11.24,0,0,1-2.49-2c-.41-.4-1.17-1.46-1.76-1.55S631.21,733.61,630.76,734Z" transform="translate(-91.11 -183.09)"/><path class="cls-7" d="M630.91,746.68a3.8,3.8,0,0,1-2.36,0,26.9,26.9,0,0,1-5.93-1.72,3.17,3.17,0,0,1-1.46-1.12,3.6,3.6,0,0,1-.41-1.4l-.33-2.33a13.6,13.6,0,0,1,.11-2.38.75.75,0,0,0-.14-.52.59.59,0,0,0-.41-.13c-.94,0-1.5,1-2.16,1.67a3.84,3.84,0,0,1-1.33.89c-.6.25-1.34.42-1.58,1-.1.25-.09.54-.2.79-.42,1-2.21.66-2.66,1.66-.13.28-.12.63-.34.85s-.61.22-.94.27c-1.3.22-1.93,1.72-3,2.43-.93.6-2.14.59-3.15,1.05a12.2,12.2,0,0,1-1.65.84,7.94,7.94,0,0,1-1.9.1.45.45,0,0,0-.37.12.5.5,0,0,0-.07.41,11.49,11.49,0,0,0,7.1,8.89,2.25,2.25,0,0,1,.6.3c.57.42.67,1.33,1.31,1.63a1.35,1.35,0,0,0,1.37-.29c.35-.35.68-.71,1-1.09a3.91,3.91,0,0,1,2.19-1.16,4.73,4.73,0,0,0,2.26-.51,6.47,6.47,0,0,0,.72-.76,4.4,4.4,0,0,1,1.61-1,16.57,16.57,0,0,1,5.15-1.13,17.64,17.64,0,0,0,4.88-.48,2.87,2.87,0,0,0,1.09-.61,3.3,3.3,0,0,0,.73-1.27A9.64,9.64,0,0,0,630.91,746.68Z" transform="translate(-91.11 -183.09)"/><path class="cls-7" d="M622.87,737.48c.46,0,.92,0,1.38,0s1.08-.13,1.63-.14a4,4,0,0,1,3.8,2.9.64.64,0,0,1,0,.41.28.28,0,0,1-.31.21,6.79,6.79,0,0,0-.7-1.4A4,4,0,0,0,626.6,738a5.36,5.36,0,0,0-2.58-.09c-.35.06-.7.16-1,.25l-1.66.46c-.31.09-.62.17-.92.28s-.62.4-.85.42-.06-.27.08-.45a2.17,2.17,0,0,1,1.09-.79A9,9,0,0,1,622.87,737.48Z" transform="translate(-91.11 -183.09)"/><path class="cls-32" d="M627.07,756.22c.41,1.29.81,2.59,1.32,3.85a32.23,32.23,0,0,0,3.4,6.2A45.27,45.27,0,0,0,634.6,770c1.25,1.48,2.65,3,3.09,4.85a24.79,24.79,0,0,1,.28,3.33,4.12,4.12,0,0,0,1.37,3,5.08,5.08,0,0,0,2.26.74c.56.09,1.27.12,1.56-.37a1.32,1.32,0,0,0,.16-.64l.13-1.63c0-.36.16-.81.51-.82s.53.45.83.66a.9.9,0,0,0,1.22-.42,2,2,0,0,0,0-1.43,6.8,6.8,0,0,0-3.49-4.33,9.47,9.47,0,0,1-1.7-.89,5.66,5.66,0,0,1-1.34-1.69,104.26,104.26,0,0,1-8.38-15.75,11.92,11.92,0,0,1-.87-3.1,20,20,0,0,1,.14-3.28,18.82,18.82,0,0,0-.54-5.84,4.84,4.84,0,0,0-.56-1.42,3.16,3.16,0,0,0-4.33-.63,4.45,4.45,0,0,0-1.73,3.16,9.12,9.12,0,0,0,.86,3.28Q625.58,751.46,627.07,756.22Z" transform="translate(-91.11 -183.09)"/><path class="cls-22" d="M645.72,727.73c0-.52-.42-1-1-1.33a13.18,13.18,0,0,1-1.6-1c-.47-.41-.73-.94-1.2-1.35a5.34,5.34,0,0,0-1.8-.9,14.07,14.07,0,0,0-4.31-.77,7.47,7.47,0,0,0-4.12,1.09,2.48,2.48,0,0,0-.7.67,3.11,3.11,0,0,0-.33,1,19,19,0,0,1-1.08,3.27,7.56,7.56,0,0,1-2,3.31c-1.17,1-3,1.53-3.72,2.7a.86.86,0,0,0-.17.76c.11.29.46.49.79.68a10.69,10.69,0,0,1,4.36,4.18,4.87,4.87,0,0,1-.37,5.22c-.44.57-1.05,1.25-.62,1.83.67.87,2.89.37,3.41,1.3a1.79,1.79,0,0,1,.07.95c0,1,.94,1.84,2.07,2.29a11.82,11.82,0,0,0,3.74.61,3.27,3.27,0,0,0,.09-2.42.92.92,0,0,1-.1-.54,1.4,1.4,0,0,1,.43-.53c1.37-1.29,1.08-3.19.26-4.73s-2.1-2.94-2.58-4.56a2.38,2.38,0,0,1,.4-2.37,8.28,8.28,0,0,1,1.18-.86,4.4,4.4,0,0,0,1.65-2.06c.38-1.06.33-2.33,1.44-3.05s2.58-.47,3.76-.93A4,4,0,0,0,645.72,727.73Z" transform="translate(-91.11 -183.09)"/><path class="cls-34" d="M710.34,780c-5.08-2.1-6.58-3.62-6.58-6.66,0-2.34,1-5,5.53-5a12.63,12.63,0,0,1,7,2l1.47-3.87a15.57,15.57,0,0,0-7.6-2v-5.66h-2.95v5.9c-5.38.87-8.49,4.55-8.49,9.4,0,5.08,3,7.77,9,10.11,4.33,1.76,6.59,3.75,6.59,7s-2.8,5.73-6.95,5.73a18,18,0,0,1-9.08-2.52l-1.4,3.92a17,17,0,0,0,8.93,2.57v5.9h5v-6.08c6-1,9.23-5.33,9.23-9.93C720.06,785.44,716.36,782.4,710.34,780Z" transform="translate(-91.11 -183.09)"/><path class="cls-7" d="M705.82,805.31v-5.89a16.93,16.93,0,0,1-8.94-2.58l1.4-3.91a18.06,18.06,0,0,0,9.08,2.51c4.15,0,6.94-2.39,6.94-5.72s-2.28-5.2-6.6-7c-6-2.34-9-5-9-10.11,0-4.85,3.12-8.53,8.49-9.4v-5.9h3V763a15.52,15.52,0,0,1,7.59,2.05l-1.46,3.85a12.65,12.65,0,0,0-7-2c-4.5,0-5.53,2.69-5.53,5,0,3,1.49,4.55,6.58,6.66,6,2.45,9.72,5.49,9.72,10.69,0,4.62-3.22,8.94-9.23,9.93v6.08Z" transform="translate(-91.11 -183.09)"/></svg>