<svg id="Layer_1" data-name="Layer 1" xmlns="http://www.w3.org/2000/svg" viewBox="0 0 881.02 635.46"><defs><style>.cls-1{fill:#f79869;}.cls-2{fill:#d8d9da;}.cls-3{fill:#fff;}.cls-4{fill:#403e56;}.cls-5{fill:#f9b7b8;}.cls-6{fill:#302e41;}.cls-7{fill:#f3f3f3;}.cls-8{fill:#ccc;}.cls-9{fill:#a0626b;}.cls-10{fill:#cacaca;}.cls-11{fill:#f8b4b6;}.cls-12,.cls-14{fill:#010101;}.cls-12{opacity:0.3;isolation:isolate;}.cls-13{opacity:0.2;}</style></defs><path id="e846ef3a-3b5e-448c-8d47-a4173376229f-1119" class="cls-1" d="M948.28,732a21.88,21.88,0,0,1-21.15-3.73c-7.41-6.21-9.73-16.46-11.62-25.94l-5.59-28.06,11.7,8.06c8.42,5.79,17,11.77,22.85,20.17s8.37,19.85,3.69,28.93" transform="translate(-94.05 -133)"/><path id="b0167a87-6d3c-4fe1-a02f-2e6974de103a-1120" class="cls-2" d="M947.28,765.93c1.19-8.63,2.41-17.37,1.57-26.09-.73-7.74-3.1-15.31-7.91-21.51a35.7,35.7,0,0,0-9.18-8.32c-.92-.58-1.76.87-.85,1.45a34,34,0,0,1,13.46,16.24c2.93,7.45,3.4,15.57,2.89,23.49-.31,4.79-1,9.54-1.6,14.29a.84.84,0,1,0,1.62.45Z" transform="translate(-94.05 -133)"/><path class="cls-3" d="M904.87,622.62H415.24V133H904.87Z" transform="translate(-94.05 -133)"/><path class="cls-1" d="M904.87,622.62H415.24V133H904.87Zm-482.39-7.24H897.63V140.23H422.48Z" transform="translate(-94.05 -133)"/><rect class="cls-1" x="512.06" y="76.6" width="212.03" height="6.6"/><rect class="cls-1" x="512.06" y="93.77" width="212.03" height="6.6"/><rect class="cls-1" x="512.06" y="110.95" width="212.03" height="6.6"/><rect class="cls-1" x="512.06" y="224.06" width="212.03" height="6.6"/><rect class="cls-1" x="512.06" y="241.23" width="212.03" height="6.6"/><rect class="cls-1" x="512.06" y="258.4" width="212.03" height="6.6"/><rect class="cls-1" x="512.06" y="371.51" width="212.03" height="6.6"/><rect class="cls-1" x="512.06" y="388.68" width="212.03" height="6.6"/><rect class="cls-1" x="512.06" y="405.86" width="212.03" height="6.6"/><path class="cls-4" d="M521.22,262.22a70,70,0,0,0-11.3-4.75l-.49-5.5-20.16-2.17-2.56,7-7.23,2.72a3.16,3.16,0,0,0-.73.38h0a3.56,3.56,0,0,0-1.53,2.39,3.63,3.63,0,0,0,.05,1.43l.38,1.57c.55.33,1.12.64,1.69.94l.36.18c.82.43,1.66.84,2.53,1.21l.54.23,0,0c.4.16.81.33,1.22.48a40.68,40.68,0,0,0,4.14,1.33,43,43,0,0,0,11,1.44c1.35,0,2.69-.07,4-.2a42.06,42.06,0,0,0,8.9-1.79h0a41.48,41.48,0,0,0,5.34-2.12h0l1.15-.58.18-.09.92-.49c.76-.42,1.51-.86,2.25-1.34.21-.12.41-.25.62-.39s.58-.38.86-.59C522.73,263.07,522,262.63,521.22,262.22Z" transform="translate(-94.05 -133)"/><path class="cls-4" d="M483.4,265.61l-1.26-5.7h-3.4a7,7,0,0,0-3.32,1.15,7.24,7.24,0,0,0-1.77,1.59c1,.74,2,1.43,3,2.08l0,0,.91.54c.55.33,1.12.64,1.69.94l.36.18c.82.43,1.66.84,2.53,1.21l.54.23,0,0c.4.16.81.33,1.22.48Z" transform="translate(-94.05 -133)"/><circle class="cls-5" cx="404.51" cy="98.81" r="14.51"/><path class="cls-6" d="M488.81,224.74c1.51,1.78,4.05,2.28,6.39,2.48a59.86,59.86,0,0,0,16.35-1.33c.33,3.22-.57,6.69,1.32,9.34a43,43,0,0,0,1.54-9.83,9.27,9.27,0,0,0-.54-4.21,3.88,3.88,0,0,0-3.3-2.43,8.34,8.34,0,0,1,3.69-1.58l-4.61-2.32,1.18-1.21-8.34-.51,2.42-1.54a52.37,52.37,0,0,0-11-.34,9.37,9.37,0,0,0-4.86,1.35c-1.38,1-2.17,2.94-1.32,4.39a6.35,6.35,0,0,0-4.85,3.85,10.26,10.26,0,0,0-.37,5,34.61,34.61,0,0,0,1.84,7.77Z" transform="translate(-94.05 -133)"/><path class="cls-1" d="M539.37,216.07a42.59,42.59,0,1,0-73.6,40.46c.38.48.78,1,1.19,1.43l.08.09a42.71,42.71,0,0,0,3.17,3.28c.29.26.6.54.91.8.58.52,1.17,1,1.79,1.49.25.19.48.38.74.57,1,.74,2,1.43,3,2.08l0,0,.91.54c.55.33,1.12.64,1.69.94l.36.18c.82.43,1.66.84,2.53,1.21l.54.23,0,0,1.22.48a40.68,40.68,0,0,0,4.14,1.33,42.5,42.5,0,0,0,11,1.43c1.35,0,2.69-.06,4-.19a42.7,42.7,0,0,0,8.9-1.79h0a41.48,41.48,0,0,0,5.34-2.12h0l1.15-.58.18-.09.92-.49c.76-.42,1.51-.86,2.25-1.34.21-.12.41-.25.62-.39l.86-.59c.37-.26.75-.53,1.12-.81l.35-.25a42.6,42.6,0,0,0,14.46-47.93ZM523.5,262.14c-.25.2-.51.39-.77.56s-.51.38-.77.55-.44.31-.67.45l-.07.05-.5.33c-.64.4-1.28.78-1.93,1.15l-.21.11-.87.47-.12.06,0,0c-.37.19-.75.38-1.12.55a38.2,38.2,0,0,1-4.46,1.81l-.59.19a39.81,39.81,0,0,1-8.43,1.72c-1.25.11-2.52.17-3.8.17A39.62,39.62,0,0,1,488.76,269a36.89,36.89,0,0,1-5.1-1.73l-.26-.1-.26-.11-.27-.12c-.72-.32-1.43-.66-2.12-1l-.34-.17c-.85-.45-1.68-.92-2.49-1.43a7.8,7.8,0,0,1-.71-.46l-.18-.11c-.54-.36-1.08-.73-1.61-1.12l-1.07-.81q-.89-.68-1.71-1.41c-.29-.25-.57-.51-.84-.77a38.53,38.53,0,0,1-3.08-3.18q-.48-.54-.93-1.11l-.19-.24a40.26,40.26,0,1,1,56.56,6.55l-.66.51Z" transform="translate(-94.05 -133)"/><path class="cls-1" d="M241.28,431.06l174,44.82a23,23,0,0,0,28-16.53L496,255a23,23,0,0,0-16.53-28l-161.92-41.7-41.45,18.55L224.75,403.07A23,23,0,0,0,241.28,431.06Z" transform="translate(-94.05 -133)"/><path class="cls-3" d="M477.78,233.36a16.4,16.4,0,0,1,11.77,19.94L436.91,457.7A16.38,16.38,0,0,1,417,469.47l-174-44.81a16.4,16.4,0,0,1-11.77-19.94l50.52-196.17,36.42-16.3Z" transform="translate(-94.05 -133)"/><path class="cls-7" d="M276.5,204.87l26.94,6.93a7.64,7.64,0,0,0,9.32-5.5l5.13-19.9a.49.49,0,0,0-.35-.58.42.42,0,0,0-.31,0L276.43,204a.47.47,0,0,0-.24.63A.49.49,0,0,0,276.5,204.87Z" transform="translate(-94.05 -133)"/><path class="cls-8" d="M290.68,379.42l79.24,20.41a3.83,3.83,0,0,0,1.91-7.42h0L292.58,372a3.82,3.82,0,1,0-1.9,7.41Z" transform="translate(-94.05 -133)"/><path class="cls-8" d="M272.16,388l94.53,24.34a3.83,3.83,0,0,0,1.91-7.41l-94.53-24.35a3.83,3.83,0,0,0-1.91,7.42Z" transform="translate(-94.05 -133)"/><circle id="a597741b-ffcf-4aba-98b0-6652ef5d57c9" class="cls-1" cx="402.26" cy="410.87" r="13.53" transform="translate(-122.16 -103.45) rotate(-4.07)"/><path class="cls-3" d="M299.1,344,404.34,371.1a11.85,11.85,0,0,0,14.42-8.51l22.06-85.68a11.86,11.86,0,0,0-8.52-14.42L327.06,235.4a11.86,11.86,0,0,0-14.42,8.52l-22.06,85.67A11.85,11.85,0,0,0,299.1,344Z" transform="translate(-94.05 -133)"/><path class="cls-1" d="M299.1,344,404.34,371.1a11.85,11.85,0,0,0,14.42-8.51l22.06-85.68a11.86,11.86,0,0,0-8.52-14.42L327.06,235.4a11.86,11.86,0,0,0-14.42,8.52l-22.06,85.67A11.85,11.85,0,0,0,299.1,344ZM432,263.84a10.46,10.46,0,0,1,7.52,12.72l-22.06,85.68a10.45,10.45,0,0,1-12.72,7.51L299.45,342.66a10.45,10.45,0,0,1-7.52-12.72L314,244.26a10.46,10.46,0,0,1,12.72-7.51Z" transform="translate(-94.05 -133)"/><path id="b056fd3f-f1a0-44f0-b006-deff0bee637d-1352" class="cls-1" d="M332.4,264.21l53.11,13.67a1.9,1.9,0,0,0,2.31-1.2,1.84,1.84,0,0,0-1.2-2.3l-.09,0-54.07-13.92c-2.18,1.11-1.61,3.37-.06,3.77Z" transform="translate(-94.05 -133)"/><path id="f1ea6668-a825-428d-96fe-a2c4e1b5a672-1353" class="cls-1" d="M330,273.52l53.11,13.68a1.91,1.91,0,0,0,2.31-1.2,1.84,1.84,0,0,0-1.2-2.3l-.09,0-54.07-13.91c-2.18,1.1-1.61,3.37-.06,3.76Z" transform="translate(-94.05 -133)"/><path id="ee9aa382-a9c9-40d0-8ed3-22ec2dd616d6-1354" class="cls-1" d="M393.23,295.46l16.21,4.17a2.06,2.06,0,0,0,2.51-1.48L416.87,279a2.06,2.06,0,0,0-1.48-2.51l-16.21-4.17a2.06,2.06,0,0,0-2.51,1.48L391.75,293a2.07,2.07,0,0,0,1.48,2.51Z" transform="translate(-94.05 -133)"/><path id="be954d2b-d8b8-4d26-80a0-a319e99a4b10-1355" class="cls-1" d="M325.24,292.64l81.07,20.87a1.9,1.9,0,0,0,2.3-1.2,1.83,1.83,0,0,0-1.2-2.3l-.09,0-82-21.11c-2.19,1.11-1.61,3.37-.07,3.77Z" transform="translate(-94.05 -133)"/><path id="baaae9e4-1b4d-40c2-8a9d-f2abb078b489-1356" class="cls-1" d="M322.85,302l81.06,20.87a1.91,1.91,0,0,0,2.3-1.2,1.82,1.82,0,0,0-1.2-2.3l-.09,0-82-21.11c-2.19,1.11-1.61,3.37-.06,3.77Z" transform="translate(-94.05 -133)"/><path id="a91bf4c9-37f6-4391-92ed-1882bd0ce21c-1357" class="cls-1" d="M320.45,311.27l81.06,20.87a1.9,1.9,0,0,0,2.3-1.2,1.83,1.83,0,0,0-1.19-2.3l-.1,0-82-21.12c-2.18,1.11-1.61,3.37-.06,3.77Z" transform="translate(-94.05 -133)"/><path id="efb98e07-468b-4c85-9a64-ee4cc5493d6f-1358" class="cls-1" d="M318.05,320.59l81.06,20.87a1.9,1.9,0,0,0,2.3-1.2,1.83,1.83,0,0,0-1.19-2.3l-.1,0-82-21.11C315.93,317.93,316.5,320.19,318.05,320.59Z" transform="translate(-94.05 -133)"/><path id="aeb1db98-32e5-40b8-ab89-fdad6a3263dc-1359" class="cls-1" d="M315.65,329.9l81.06,20.87a1.9,1.9,0,0,0,2.31-1.2,1.84,1.84,0,0,0-1.2-2.3l-.09,0-82-21.11C313.53,327.24,314.1,329.51,315.65,329.9Z" transform="translate(-94.05 -133)"/><path id="be265de5-288f-49a7-867d-c42e7cdbf4db-1360" class="cls-3" d="M402,415.62a1.5,1.5,0,0,1-.89-.06h0L397.38,414a1.42,1.42,0,1,1,1.1-2.61h0l2.39,1L404,405a1.42,1.42,0,0,1,1.85-.75h0v0l0,0a1.41,1.41,0,0,1,.74,1.85l-3.68,8.66a1.4,1.4,0,0,1-.95.82Z" transform="translate(-94.05 -133)"/><path class="cls-1" d="M174.52,509H354.25a23,23,0,0,0,23-23V274.9a23,23,0,0,0-23-23H187l-35.51,28.3V486A23,23,0,0,0,174.52,509Z" transform="translate(-94.05 -133)"/><path class="cls-3" d="M354.25,258.53a16.39,16.39,0,0,1,16.37,16.37V486a16.39,16.39,0,0,1-16.37,16.37H174.52A16.39,16.39,0,0,1,158.15,486V283.4l31.21-24.87Z" transform="translate(-94.05 -133)"/><path class="cls-1" d="M209.48,319.9h81.83a3.83,3.83,0,0,0,0-7.66H209.48a3.83,3.83,0,0,0,0,7.66Z" transform="translate(-94.05 -133)"/><path class="cls-1" d="M193.69,332.82h97.62a3.83,3.83,0,0,0,0-7.66H193.69a3.83,3.83,0,1,0,0,7.66Z" transform="translate(-94.05 -133)"/><path class="cls-8" d="M209.48,370.14H291.3a3.83,3.83,0,1,1,0,7.66H209.48a3.83,3.83,0,0,1,0-7.66Z" transform="translate(-94.05 -133)"/><path class="cls-8" d="M193.69,383.06H291.3a3.83,3.83,0,1,1,0,7.66H193.69a3.83,3.83,0,1,1,0-7.66Z" transform="translate(-94.05 -133)"/><path class="cls-8" d="M209.48,435.7h81.83a3.83,3.83,0,0,0,0-7.65H209.48a3.83,3.83,0,0,0,0,7.65Z" transform="translate(-94.05 -133)"/><path class="cls-8" d="M193.69,448.62h97.62a3.83,3.83,0,0,0,0-7.65H193.69a3.83,3.83,0,1,0,0,7.65Z" transform="translate(-94.05 -133)"/><circle id="abdb8e2f-a218-463c-85f4-c869fef49971" class="cls-1" cx="231.33" cy="189.54" r="13.53"/><path id="ba7dbbd6-0052-44b1-a552-47a8298b8d3e-1361" class="cls-3" d="M324.17,327.69a1.35,1.35,0,0,1-.84-.28h0L320.13,325a1.41,1.41,0,0,1,1.72-2.24h0l2.06,1.58,4.87-6.35a1.41,1.41,0,0,1,2-.26h0l0,0,0,0a1.41,1.41,0,0,1,.26,2l-5.72,7.46a1.43,1.43,0,0,1-1.13.55Z" transform="translate(-94.05 -133)"/><path class="cls-8" d="M310.46,380.43A13.54,13.54,0,0,0,324,394h0l.35,0a13.53,13.53,0,1,0-13.88-13.52Z" transform="translate(-94.05 -133)"/><circle id="e4a71040-498e-4958-ad41-c2d79154b8f7" class="cls-8" cx="231.33" cy="305.34" r="13.53"/><path class="cls-8" d="M152.23,281.12H180a7.66,7.66,0,0,0,7.66-7.65h0V252.92a.48.48,0,0,0-.78-.37l-35,27.72a.48.48,0,0,0-.08.67A.46.46,0,0,0,152.23,281.12Z" transform="translate(-94.05 -133)"/><path class="cls-1" d="M310.46,380.43A13.54,13.54,0,0,0,324,394h0l.35,0a29.32,29.32,0,0,0-2.63-26.86A13.54,13.54,0,0,0,310.46,380.43Z" transform="translate(-94.05 -133)"/><path class="cls-1" d="M295.13,374a3.84,3.84,0,0,0-3.83-3.83H270.91a29.16,29.16,0,0,0-2.51,7.66h22.9A3.82,3.82,0,0,0,295.13,374Z" transform="translate(-94.05 -133)"/><path class="cls-1" d="M267.92,383.06a29.15,29.15,0,0,0,1,7.66H291.3a3.83,3.83,0,1,0,0-7.66H267.92Z" transform="translate(-94.05 -133)"/><path class="cls-4" d="M217.47,430.28a4.19,4.19,0,0,0,5.75,1.39L272,401.93a4.18,4.18,0,1,0-4.36-7.14l-48.76,29.74A4.19,4.19,0,0,0,217.47,430.28Z" transform="translate(-94.05 -133)"/><path class="cls-4" d="M266.24,400.53a33.44,33.44,0,1,0,11.13-45.95h0A33.47,33.47,0,0,0,266.24,400.53Zm50-30.47a25.08,25.08,0,1,1-34.47-8.35A25.08,25.08,0,0,1,316.2,370.06Z" transform="translate(-94.05 -133)"/><circle class="cls-9" cx="65.06" cy="238.38" r="17.11"/><path class="cls-9" d="M160.21,467.29a7.66,7.66,0,0,0-5-9.64,8.67,8.67,0,0,0-.84-.22,8.86,8.86,0,0,0-1-.12l-18-28.93,16.46-15.65a6.57,6.57,0,1,0-9.05-9.52l-.09.08L120,425.7l0,.06a6,6,0,0,0,.42,7.09l25.25,29.87c-.07.24-.14.48-.19.73a7.66,7.66,0,0,0,6,9,6.35,6.35,0,0,0,.86.12l.65,0A7.68,7.68,0,0,0,160.21,467.29Z" transform="translate(-94.05 -133)"/><polygon class="cls-9" points="93.24 476.5 101.78 476.5 105.84 443.56 93.24 443.56 93.24 476.5"/><path class="cls-6" d="M185.11,617.77h27.54v-.35a10.72,10.72,0,0,0-10.72-10.72H185.11Z" transform="translate(-94.05 -133)"/><polygon class="cls-9" points="8.36 464.69 15.69 469.06 36.04 442.83 25.21 436.38 8.36 464.69"/><path class="cls-6" d="M96.3,603.68,120,617.77l.17-.3a10.71,10.71,0,0,0-3.72-14.69h0L102,594.18Z" transform="translate(-94.05 -133)"/><path class="cls-6" d="M201,595c5.72-67.37,9.12-129.95-11.79-155.48l-.16-.2-35.2,14.08-.06.13c-.12.25-11.82,26-9.09,43.32L136,536.78l-28.31,47.39a3.14,3.14,0,0,0,1.08,4.3,2.91,2.91,0,0,0,.35.18l12.3,5.41a3.14,3.14,0,0,0,3.93-1.23l30.8-50.21,17.39-38.51a1,1,0,0,1,2,.32l9.64,90.63a3.14,3.14,0,0,0,3.12,2.8h9.56A3.16,3.16,0,0,0,201,595Z" transform="translate(-94.05 -133)"/><path class="cls-1" d="M189.06,440l.17-.08,0-.18c1.32-9.2-.24-19.43-4.62-30.39a24.13,24.13,0,0,0-28-14.45h0a24,24,0,0,0-17,30.92c5.53,16.16,12.7,31.28,12.77,31.43l.15.32Z" transform="translate(-94.05 -133)"/><path class="cls-9" d="M227.46,417.12a7.66,7.66,0,0,0-10.76,1.27,7,7,0,0,0-.5.71,7.15,7.15,0,0,0-.48.91l-33.4,6.75-8.9-20.9A6.57,6.57,0,0,0,161.33,411l0,.1,13,29.14,0,.07a6,6,0,0,0,6.79,2.09l36.82-13.19c.2.15.4.3.61.43a7.67,7.67,0,0,0,10.56-2.48,8,8,0,0,0,.41-.76c.1-.2.18-.4.26-.6A7.7,7.7,0,0,0,227.46,417.12Z" transform="translate(-94.05 -133)"/><path class="cls-6" d="M97.3,389.7c1.65-2.92,4-5.6,7.22-6.68,4.1-1.39,8.54.09,12.76,1.08a23.57,23.57,0,0,0,9.91.59,11.14,11.14,0,0,0,7.92-5.53c2.19-4.39.34-9.63.48-14.54A17.62,17.62,0,0,1,157.82,348c4-1.17,7.69-1.28,10.19,1.83a11.84,11.84,0,0,1,11.84,11.84H168.53a11.24,11.24,0,0,1-1.71,8.31c-2,2.94-5.47,5.06-6.14,8.55s1.65,6.59,4.06,9.05,5.2,4.89,6,8.25a10.26,10.26,0,0,1-1.47,7.36,24.34,24.34,0,0,1-5.14,5.67A75.53,75.53,0,0,1,132.71,425c-8.15,2-17.07,2.47-24.64-1.14a24.48,24.48,0,0,1-11.55-32.62C96.77,390.68,97,390.18,97.3,389.7Z" transform="translate(-94.05 -133)"/><path class="cls-8" d="M94.74,618.5H227.1a.7.7,0,1,0,0-1.4H94.74a.7.7,0,0,0,0,1.4Z" transform="translate(-94.05 -133)"/><path class="cls-3" d="M539.37,363.53A42.59,42.59,0,1,0,465.77,404c.38.48.78,1,1.19,1.43l.08.09a42.58,42.58,0,0,0,3.17,3.27c.29.27.6.54.91.8.58.52,1.17,1,1.79,1.5a43.38,43.38,0,0,0,3.78,2.65l0,0c.85.53,1.72,1,2.6,1.48l.36.19c.82.43,1.66.83,2.53,1.21l.54.23h0a40.7,40.7,0,0,0,5.36,1.81,42.51,42.51,0,0,0,11,1.44c1.35,0,2.69-.06,4-.19a42.08,42.08,0,0,0,8.9-1.8h0a42.93,42.93,0,0,0,5.34-2.11l0,0c.39-.18.77-.38,1.15-.57l.18-.09.92-.49c.76-.42,1.51-.87,2.25-1.34.21-.12.41-.25.62-.39.67-.44,1.33-.92,2-1.4l.35-.26a42.58,42.58,0,0,0,14.46-47.92Z" transform="translate(-94.05 -133)"/><circle id="f2095780-2301-4cc1-9693-3d089d317ca1" class="cls-6" cx="419.16" cy="255.71" r="6.38"/><path id="fe36a822-bf42-420c-ba8a-fcca90365ca6-1121" class="cls-6" d="M515,382.49a6.38,6.38,0,0,1,5.62,9.42,6.38,6.38,0,0,0-10-8,6.11,6.11,0,0,0-.63,1,6.37,6.37,0,0,1,5-2.41Z" transform="translate(-94.05 -133)"/><circle id="e26e4994-e49f-47aa-919e-dc7dee2cb7c3" class="cls-6" cx="407.23" cy="236.94" r="18.75"/><path id="ac420ffb-80fa-461b-bc18-228b12874f63-1122" class="cls-6" d="M486.56,358.3a18.75,18.75,0,0,1,26-2l-.47-.44a18.75,18.75,0,0,0-25,27.94l.11.09.48.41a18.76,18.76,0,0,1-1.09-26Z" transform="translate(-94.05 -133)"/><circle id="a12696bc-31d6-40e2-aafc-0c11595f0891" class="cls-9" cx="407.07" cy="243.46" r="12.08"/><path class="cls-1" d="M522.73,407.92V412c-.74.47-1.49.92-2.26,1.34l-.91.49-.19.09c-.38.19-.75.39-1.14.57l0,0a42.38,42.38,0,0,1-5.34,2.12h0a42.33,42.33,0,0,1-8.9,1.8c-1.32.13-2.66.19-4,.19a42.43,42.43,0,0,1-11-1.44,40.83,40.83,0,0,1-5.37-1.81h0l-.54-.23c-.86-.38-1.7-.78-2.53-1.21l-.36-.18c-.88-.47-1.74-1-2.59-1.49l-.05,0a42.6,42.6,0,0,1-3.77-2.65c-.62-.48-1.22-1-1.8-1.49-.31-.26-.61-.54-.9-.81A40.9,40.9,0,0,1,467.8,404a15.84,15.84,0,0,1,.59-2.35h0c.05-.13.1-.26.16-.39s.09-.21.15-.32c1.37-2.56,3.84-3.19,6.92-3.33,1.73-.08,3.65,0,5.68,0,1.07,0,2.18,0,3.29-.14,7-.64,5.72-4.76,6-7s2.25-.29,2.38-.17h0a24.76,24.76,0,0,0,12.69,2.23,21.29,21.29,0,0,1,2.25-.17c2,0,1.54.54.86,1a9.4,9.4,0,0,1-1,.58s-.31,1.91-.63,4.77,4.93,4,5.37,4.12h0a10.47,10.47,0,0,1,5.82.15h0A6.88,6.88,0,0,1,522.73,407.92Z" transform="translate(-94.05 -133)"/><path class="cls-6" d="M483.64,412.83c0,.57,0,1.11,0,1.62,0,.31,0,.61,0,.89h0l-.54-.23c-.86-.38-1.7-.78-2.53-1.21l-.36-.18c-.88-.47-1.74-1-2.59-1.49,0-.27.06-.53.1-.8.08-.59.15-1.19.2-1.77a24.61,24.61,0,0,0-2.18-12h0c-.15-.31-.25-.47-.25-.47a4.6,4.6,0,0,1,5.4,0,1.9,1.9,0,0,1,.53.45C483.21,399.83,483.73,407.41,483.64,412.83Z" transform="translate(-94.05 -133)"/><path class="cls-6" d="M518.36,411.79c0,.86-.08,1.76-.13,2.66h0l0,0a42.38,42.38,0,0,1-5.34,2.12h0l-.09-2.15v-.28l-.41-10.46a1.76,1.76,0,0,1,1.67-1.83h4c.19,0,.33.39.42,1.09h0A66.41,66.41,0,0,1,518.36,411.79Z" transform="translate(-94.05 -133)"/><path id="e6a5f050-bb79-4898-9f1b-a16710d0980e-1123" class="cls-6" d="M490.79,361.36v12.08h2.8l3.55-3.82-.47,3.82H509l-.76-3.82,1.53,3.82h2V361.36Z" transform="translate(-94.05 -133)"/><ellipse id="bcc9b546-fa99-40e5-8b80-3cc98cb6450e" class="cls-9" cx="394.84" cy="240.91" rx="0.95" ry="1.75"/><ellipse id="aac24dc1-8688-403d-884a-09279027a7ab" class="cls-9" cx="419.31" cy="240.91" rx="0.95" ry="1.75"/><path class="cls-1" d="M525.32,410.18c-.64.48-1.31,1-2,1.4-.21.14-.4.27-.61.39-.74.47-1.49.92-2.26,1.34l-.91.49v-8.43s1.22,1,3.17,2.61l.76.65C524.06,409.1,524.67,409.62,525.32,410.18Z" transform="translate(-94.05 -133)"/><path class="cls-4" d="M539.37,363.53A42.59,42.59,0,1,0,465.77,404c.38.48.78,1,1.19,1.43l.08.09a42.58,42.58,0,0,0,3.17,3.27c.29.27.6.54.91.8.58.52,1.17,1,1.79,1.5a43.38,43.38,0,0,0,3.78,2.65l0,0c.85.53,1.72,1,2.6,1.48l.36.19c.82.43,1.66.83,2.53,1.21l.54.23h0a40.7,40.7,0,0,0,5.36,1.81,42.51,42.51,0,0,0,11,1.44c1.35,0,2.69-.06,4-.19a42.08,42.08,0,0,0,8.9-1.8h0a42.93,42.93,0,0,0,5.34-2.11l0,0c.39-.18.77-.38,1.15-.57l.18-.09.92-.49c.76-.42,1.51-.87,2.25-1.34.21-.12.41-.25.62-.39.67-.44,1.33-.92,2-1.4l.35-.26a42.58,42.58,0,0,0,14.46-47.92ZM523.5,409.59c-.25.2-.51.39-.77.57s-.51.37-.77.54l-.67.46-.57.37c-.64.4-1.28.78-1.93,1.15l-.21.12-.87.46-.12.06,0,0-1.12.55a38.14,38.14,0,0,1-4.46,1.8l-.59.2a39.79,39.79,0,0,1-8.43,1.71c-1.25.12-2.52.18-3.8.18a39.62,39.62,0,0,1-10.39-1.36,38.26,38.26,0,0,1-5.1-1.73l-.52-.21-.27-.13c-.72-.31-1.43-.65-2.12-1l-.34-.18c-.85-.44-1.68-.92-2.49-1.42l-.89-.57c-.91-.61-1.81-1.26-2.68-1.94-.59-.44-1.16-.92-1.71-1.41-.29-.24-.57-.51-.84-.76a38.53,38.53,0,0,1-3.08-3.18c-.32-.37-.63-.73-.93-1.12a2.11,2.11,0,0,1-.19-.23,40.26,40.26,0,1,1,56.56,6.54q-.33.27-.66.51Z" transform="translate(-94.05 -133)"/><circle class="cls-6" cx="405.34" cy="394.44" r="16.69"/><ellipse class="cls-6" cx="482.7" cy="514.78" rx="6.9" ry="5.18" transform="translate(-316.67 359.1) rotate(-45)"/><ellipse class="cls-6" cx="510.43" cy="510.43" rx="5.18" ry="6.9" transform="translate(-253.52 646.32) rotate(-66.87)"/><path class="cls-10" d="M519.35,559.81l-2-3.1A7.72,7.72,0,0,0,503.28,563l.55,2,.64,2.28a43.85,43.85,0,0,0,7.6-1.66h0a40.5,40.5,0,0,0,5.35-2.12l0,0c.39-.18.76-.37,1.15-.57l.18-.09c.31-.16.62-.32.92-.49a9.85,9.85,0,0,0,.89-.52Z" transform="translate(-94.05 -133)"/><circle class="cls-11" cx="405.87" cy="398.43" r="14.16"/><path class="cls-10" d="M520.37,559.2a30.63,30.63,0,0,0-5.75-7,8.41,8.41,0,0,0-5.61-2.14H489.06a8.42,8.42,0,0,0-8.41,8.41,4.87,4.87,0,0,0,0,.54,9,9,0,0,0,.34,1.91,10.56,10.56,0,0,0,.53,1.31l1,2,.23.1,0,0c.4.16.81.33,1.22.48a40.68,40.68,0,0,0,4.14,1.33,41.61,41.61,0,0,0,6.9,1.24c1.36.13,2.72.2,4.09.2s2.69-.07,4-.2l1.3-.13a43.53,43.53,0,0,0,7.59-1.66h0a40.5,40.5,0,0,0,5.35-2.12l0,0c.39-.18.76-.37,1.15-.57l.18-.09c.31-.16.62-.32.92-.49a9.85,9.85,0,0,0,.89-.52c.31-.16.6-.34.9-.53C521.13,560.52,520.76,559.85,520.37,559.2Z" transform="translate(-94.05 -133)"/><path class="cls-10" d="M492.67,552.67a7.7,7.7,0,0,0-10.23,3.68L480.67,559l-.85,1.28-1.29,2,.8.43.35.18c.83.43,1.67.83,2.54,1.21.09,0,.2.08.31.13l.23.1,0,0c.4.16.81.33,1.22.48a40.68,40.68,0,0,0,4.14,1.33,41.61,41.61,0,0,0,6.9,1.24l.68-2.28.65-2.18A7.71,7.71,0,0,0,492.67,552.67Z" transform="translate(-94.05 -133)"/><path class="cls-6" d="M485,522.52a19.32,19.32,0,0,0,11,3.4,11.8,11.8,0,0,1-4.68,1.92,38.87,38.87,0,0,0,15.86.09,10.22,10.22,0,0,0,3.32-1.14,4.17,4.17,0,0,0,2.05-2.74c.35-2-1.2-3.8-2.81-5a20.73,20.73,0,0,0-17.42-3.49,9.61,9.61,0,0,0-5.17,2.92,4.71,4.71,0,0,0-.43,5.58Z" transform="translate(-94.05 -133)"/><path class="cls-4" d="M539.38,511a42.59,42.59,0,1,0-73.6,40.46c.37.48.78,1,1.18,1.43l.08.1a42.52,42.52,0,0,0,3.18,3.26c.29.27.59.55.9.81.57.52,1.17,1,1.8,1.49.24.19.48.38.73.56,1,.75,2,1.43,3,2.1a0,0,0,0,1,0,0l.92.54.88.51.8.43.35.18c.83.43,1.67.83,2.54,1.21.09,0,.2.08.31.13l.23.1,0,0c.4.16.81.33,1.22.48a40.68,40.68,0,0,0,4.14,1.33,41.61,41.61,0,0,0,6.9,1.24c1.36.13,2.72.2,4.09.2s2.69-.07,4-.2l1.3-.13a43.85,43.85,0,0,0,7.6-1.66h0a40.5,40.5,0,0,0,5.35-2.12l0,0c.39-.18.76-.37,1.15-.57l.18-.09c.31-.16.62-.32.92-.49a9.85,9.85,0,0,0,.89-.52c.31-.16.6-.34.9-.53L522,561c.22-.13.41-.26.62-.4s.58-.39.86-.59.75-.53,1.12-.81a2.88,2.88,0,0,0,.35-.26A42.63,42.63,0,0,0,539.38,511ZM523.5,557c-.25.2-.51.4-.77.57s-.51.38-.77.55-.44.31-.67.45l-.07,0c-.16.12-.34.22-.5.33l-.35.21c-.33.21-.67.42-1,.61l-.56.33-.2.11c-.3.17-.59.31-.88.46a1.05,1.05,0,0,0-.11.07l-.05,0c-.37.19-.74.38-1.12.55a36.47,36.47,0,0,1-4.46,1.8c-.19.07-.4.15-.59.2a39.67,39.67,0,0,1-7.55,1.62l-.88.1c-1.25.12-2.52.17-3.8.17s-2.28,0-3.41-.14a39.39,39.39,0,0,1-7-1.22,36.89,36.89,0,0,1-5.1-1.73l-.26-.11-.26-.1-.27-.13c-.62-.27-1.25-.57-1.86-.87l-.26-.14-.33-.17-.6-.32c-.65-.35-1.28-.72-1.9-1.11l-.71-.45-.18-.12c-.54-.36-1.08-.73-1.61-1.13l-1.07-.8c-.58-.45-1.15-.92-1.7-1.41-.29-.24-.58-.51-.85-.76a36.85,36.85,0,0,1-3.07-3.18c-.32-.37-.64-.74-.94-1.12l-.19-.24a40.26,40.26,0,1,1,56.56,6.54l-.65.51Z" transform="translate(-94.05 -133)"/><path class="cls-4" d="M570.4,302.9a100.09,100.09,0,1,0,5.68,147.83l122.78,103.6a9.22,9.22,0,0,0,11.91-14.09h0L588,436.63A100.1,100.1,0,0,0,570.4,302.9Zm-7.91,123.75a75,75,0,1,1-9-105.68h0a75,75,0,0,1,9,105.68Z" transform="translate(-94.05 -133)"/><path class="cls-12" d="M456.81,435.6a75,75,0,0,1-12.73-100.81c-1.43,1.44-2.82,2.95-4.15,4.53a75,75,0,1,0,114.63,96.73q2-2.37,3.77-4.86A75,75,0,0,1,456.81,435.6Z" transform="translate(-94.05 -133)"/><path class="cls-11" d="M817.94,558.2a10.36,10.36,0,0,0-1.45-14.57,10.81,10.81,0,0,0-1.51-1L792.6,451l-16.33,5.21,24.17,91a10.41,10.41,0,0,0,17.5,11Z" transform="translate(-94.05 -133)"/><polygon class="cls-4" points="712.32 366.61 700.39 376.9 683.7 391.3 676.32 353.57 675.55 349.65 674.95 346.54 691.86 317.08 705.96 317.88 706.92 317.94 706.94 318.15 707.16 320.13 710.06 346.13 710.12 346.76 712.32 366.61"/><polygon class="cls-11" points="634.33 622.66 622.52 622.66 616.9 577.08 634.34 577.08 634.33 622.66"/><path class="cls-6" d="M731.39,767.11H693.3v-.48a14.83,14.83,0,0,1,14.83-14.83H731.4Z" transform="translate(-94.05 -133)"/><polygon class="cls-11" points="757.7 623.62 745.88 623.62 740.26 578.05 757.7 578.05 757.7 623.62"/><path class="cls-6" d="M854.76,768.07h-38.1v-.48a14.83,14.83,0,0,1,14.83-14.83h23.27Z" transform="translate(-94.05 -133)"/><path class="cls-6" d="M861.19,738.48l-31.81,4.82L783.11,586.7,734,744.26l-35.66-4.82,46.26-183.11V541.87l6.27-21.68-.66-5.87-4.56-41.05-2-17.8-.13-1.15a3.92,3.92,0,0,1,3.08-4.26h0l14.84-3.12h24.25L800,450.88l1,.27.44.13-.22,1.85-3.35,28.12-.19,1.54-3.23,27.11-.72,6c27.95,20.24,28.92,40.48,28.92,40.48Z" transform="translate(-94.05 -133)"/><circle class="cls-11" cx="676.59" cy="278.08" r="23.67"/><rect class="cls-4" x="748.91" y="513.44" width="47.22" height="6.75" transform="translate(-154.54 -28.46) rotate(-7.45)"/><path class="cls-11" d="M685.86,518.55a9.92,9.92,0,0,1,1.27,1l46.31-11.81,3.16-11.17,17.49,2.56-3.67,20.33a7.72,7.72,0,0,1-6.78,6.3l-54.08,5.69a10.12,10.12,0,1,1-4.8-13.48A9.06,9.06,0,0,1,685.86,518.55Z" transform="translate(-94.05 -133)"/><path class="cls-4" d="M757.1,456.1l-8.19-6.27c-2.22-.84-5.25,1.55-5.78,3.86l-11.57,47.22,24.09,17.35L759,513Z" transform="translate(-94.05 -133)"/><g class="cls-13"><path class="cls-14" d="M804.1,479.13a65.44,65.44,0,0,1-6.24,2.12c-.68.2-1.37.4-2.06.58A63.36,63.36,0,0,1,782,484.06a43.38,43.38,0,0,1-6-.16,33.5,33.5,0,0,1-6.35-1.25l-.21-.06a27.9,27.9,0,0,1-11.52-6.54,21.8,21.8,0,0,1-2-2.27,20.47,20.47,0,0,1-4.4-15.93,12.67,12.67,0,0,1,.33-1.51,23,23,0,0,1,1.44-3.95c.26-.6.55-1.19.85-1.77L765,446.94h20.74L800,450.88l1,.06,0,.21.44.13-.22,1.85Z" transform="translate(-94.05 -133)"/></g><path class="cls-6" d="M752.5,391.48c-4.43-.54-9.29-.16-12.74,2.67s-4.56,8.7-1.3,11.73c2.9,2.69,7.42,2.06,11.29,2.82a15.28,15.28,0,0,1,11.94,14.61c-.06,9.81-9.47,17.23-11.16,26.89-1.16,6.59,1.62,13.53,6.43,18.19s11.42,7.17,18.07,7.85,13.39-.36,19.86-2.07,12.89-4.15,18.35-8.08,9.92-9.47,11.67-16,.49-13.93-4-18.91c-5.16-5.7-13.76-7.67-18.22-13.93-5-7-3.16-17-7.21-24.64-2.71-5.09-7.83-8.55-13.29-10.38s-11.3-2.19-17.06-2.36c-3-.1-6.14-.13-9,1s-5.3,3.62-5.44,6.65S752.5,391.48,752.5,391.48Z" transform="translate(-94.05 -133)"/><path class="cls-10" d="M974.1,768.46H606.91a1,1,0,0,1,0-1.93H974.1a1,1,0,1,1,0,1.93Z" transform="translate(-94.05 -133)"/></svg>